<?xml version="1.0" standalone="no"?>
<!DOCTYPE svg PUBLIC "-//W3C//DTD SVG 1.1//EN" "http://www.w3.org/Graphics/SVG/1.1/DTD/svg11.dtd" >
<svg xmlns="http://www.w3.org/2000/svg">
<metadata></metadata>
<defs>
<font id="heineken_corebold" horiz-adv-x="1148" >
<font-face units-per-em="2048" ascent="1577" descent="-471" />
<missing-glyph horiz-adv-x="495" />
<glyph unicode="&#xfb01;" horiz-adv-x="1183" d="M37 874v78q0 41 39 41h117v60q0 90 19 164.5t64 134.5q49 66 138.5 102.5t212.5 36.5q74 0 144.5 -12.5t113.5 -28.5q23 -10 30 -20.5t3 -32.5l-17 -105q-4 -18 -13 -26.5t-36 -1.5q-41 10 -93 17t-93 7q-59 0 -99.5 -13t-66.5 -38q-59 -55 -60 -178v-66h553q25 0 37 -9 t12 -38v-895q0 -51 -49 -51h-145q-51 0 -51 51v772h-357v-766q0 -29 -11 -43t-40 -14h-147q-49 0 -49 53v770h-111q-29 0 -37 9.5t-8 41.5z" />
<glyph unicode="&#xfb02;" horiz-adv-x="1198" d="M37 874v78q0 41 39 41h117v56q0 117 27.5 201.5t92.5 144.5q102 96 285 96q82 0 156.5 -16.5t124.5 -32.5l143 20q29 4 38 -5t9 -34v-1372q0 -51 -47 -51h-154q-47 0 -47 49v1211q-35 10 -86 19t-92 9q-49 0 -85 -12t-58 -33q-35 -33 -47.5 -82t-12.5 -106v-62h201 q41 0 41 -35v-96q0 -39 -39 -39h-203v-766q0 -29 -11 -43t-40 -14h-147q-49 0 -49 53v770h-111q-29 0 -37 9.5t-8 41.5z" />
<glyph unicode="&#xfb03;" horiz-adv-x="1806" d="M37 874v78q0 41 39 41h114v49q0 98 19.5 178t62.5 135.5t110 86.5t161 31q49 0 104 -10.5t103 -26.5q23 -8 25.5 -24.5t-3.5 -51.5l-16 -86q-4 -23 -16.5 -27t-30.5 0q-39 10 -70 16.5t-59 6.5q-82 0 -112 -52.5t-30 -142.5v-82h377v60q0 90 19.5 164.5t64.5 134.5 q49 66 138 102.5t212 36.5q74 0 144.5 -12.5t113.5 -28.5q23 -10 30 -20.5t3 -32.5l-16 -105q-4 -18 -13.5 -26.5t-35.5 -1.5q-41 10 -93.5 17t-93.5 7q-59 0 -99 -13t-67 -38q-59 -55 -59 -178v-66h553q25 0 37 -9t12 -38v-895q0 -51 -49 -51h-146q-51 0 -51 51v772h-356 v-766q0 -29 -11.5 -43t-39.5 -14h-148q-49 0 -49 53v770h-377v-766q0 -29 -11 -43t-40 -14h-147q-49 0 -50 53v770h-110q-29 0 -36 9.5t-7 41.5z" />
<glyph unicode="&#xfb04;" horiz-adv-x="1820" d="M37 874v78q0 41 39 41h114v49q0 98 19.5 178t62.5 135.5t110 86.5t161 31q49 0 104 -10.5t103 -26.5q23 -8 25.5 -24.5t-3.5 -51.5l-16 -86q-4 -23 -16.5 -27t-30.5 0q-39 10 -70 16.5t-59 6.5q-82 0 -112 -52.5t-30 -142.5v-82h377v56q0 117 27.5 201.5t93.5 144.5 q102 96 285 96q82 0 156.5 -16.5t123.5 -32.5l144 20q29 4 38 -5t9 -34v-1372q0 -51 -47 -51h-154q-47 0 -47 49v1211q-35 10 -86 19t-92 9q-49 0 -85 -12t-59 -33q-35 -33 -47 -82t-12 -106v-62h201q41 0 41 -35v-96q0 -39 -39 -39h-203v-766q0 -29 -11.5 -43t-39.5 -14 h-148q-49 0 -49 53v770h-377v-766q0 -29 -11 -43t-40 -14h-147q-49 0 -50 53v770h-110q-29 0 -36 9.5t-7 41.5z" />
<glyph horiz-adv-x="2048" />
<glyph horiz-adv-x="2048" />
<glyph unicode="&#xd;" horiz-adv-x="495" />
<glyph unicode=" "  horiz-adv-x="495" />
<glyph unicode="&#x09;" horiz-adv-x="495" />
<glyph unicode="&#xa0;" horiz-adv-x="495" />
<glyph unicode="!" horiz-adv-x="530" d="M111 131q0 12 20 33l102 102q20 20 31 21q10 0 31 -21l102 -102q12 -12 16.5 -19.5t4.5 -13.5t-4 -13t-17 -20l-102 -102q-21 -21 -31 -21t-31 21l-102 102q-20 20 -20 33zM152 1378q0 23 7 31t29 8h164q23 0 30 -8t7 -31l-22 -975q0 -39 -39 -38h-115q-25 0 -33 9t-8 32 z" />
<glyph unicode="&#x22;" horiz-adv-x="677" d="M82 1407q0 16 8 26.5t33 10.5h133q45 0 41 -37l-16 -324q-2 -20 -7.5 -29.5t-27.5 -9.5h-113q-23 0 -28 9.5t-7 29.5zM379 1407q0 16 8 26.5t33 10.5h133q45 0 41 -37l-16 -324q-2 -20 -7.5 -29.5t-27.5 -9.5h-113q-23 0 -28 9.5t-7 29.5z" />
<glyph unicode="#" d="M37 442l14 117q4 23 13.5 28t25.5 5h154l35 227h-142q-41 0 -37 37l15 117q4 23 13 28t26 5h153l58 380q4 18 11 24.5t25 6.5h150q25 0 33 -8t4 -31l-58 -372h170l60 380q4 18 11 24.5t26 6.5h149q25 0 33 -8t4 -31l-61 -372h153q23 0 31 -9.5t6 -27.5l-14 -117 q-4 -23 -13.5 -28t-25.5 -5h-164l-35 -227h152q23 0 31 -9.5t6 -27.5l-15 -117q-4 -23 -13 -27.5t-26 -4.5h-166l-55 -375q-4 -18 -11 -24.5t-26 -6.5h-149q-25 0 -33 8t-4 31l55 367h-168l-55 -375q-4 -18 -11 -24.5t-26 -6.5h-149q-25 0 -33 8t-4 31l55 367h-141 q-41 0 -37 36zM467 592h170l35 227h-166z" />
<glyph unicode="$" d="M123 1061q0 86 33.5 152.5t91 114.5t131.5 77t151 37v162q0 33 31 32h62q23 0 28.5 -7t5.5 -27v-158q80 -4 153 -21.5t148 -50.5q23 -10 30 -19.5t7 -21.5q0 -8 -4 -20l-45 -127q-10 -29 -29.5 -29t-44.5 10q-47 20 -104 36t-111 24v-396l97 -45q61 -29 113.5 -65.5 t92 -82.5t62 -104.5t22.5 -128.5q0 -92 -29.5 -163.5t-81.5 -124t-123 -86t-153 -45.5v-150q0 -25 -5 -34t-34 -9h-51q-27 0 -32 10.5t-5 32.5v141q-182 0 -368 66q-29 10 -34 24.5t3 43.5l37 129q8 25 25.5 28.5t39.5 -4.5q66 -25 145 -42t150 -21h2v434l-170 82 q-111 53 -174 139t-63 207zM381 1069q0 -70 42 -108.5t107 -71.5v334q-57 -10 -103 -49t-46 -105zM657 215q59 18 99.5 61t40.5 111q0 66 -41 114t-99 72v-358z" />
<glyph unicode="%" horiz-adv-x="1630" d="M74 1057q0 170 78.5 269t224.5 99q145 0 224 -99t79 -269t-79 -269.5t-224 -99.5t-224 99.5t-79 269.5zM268 -12.5q-10 12.5 4 35.5l858 1382q14 23 27.5 31t42.5 8h125q29 0 39 -12.5t-4 -34.5l-858 -1383q-14 -23 -27.5 -31t-42.5 -8h-125q-29 0 -39 12.5zM274 1057 q0 -213 103 -213q102 0 102 213t-102 213t-103 -213zM950 360q0 170 79 269.5t224 99.5t224 -99.5t79 -269.5t-78.5 -269t-224.5 -99q-145 0 -224 99t-79 269zM1151 360q0 -213 102 -213q103 0 103 213t-103 213q-102 0 -102 -213z" />
<glyph unicode="&#x26;" horiz-adv-x="1413" d="M51 389q0 76 27.5 138.5t73 114.5t103.5 95t118 80l-56 64q-53 61 -82.5 119.5t-29.5 132.5q0 68 29.5 125t81 99t118 64.5t137.5 22.5q74 0 137.5 -21.5t110.5 -61.5t75 -96.5t28 -125.5q0 -55 -21.5 -103.5t-55.5 -90.5t-76 -76.5t-85 -65.5l305 -348q20 27 44 66.5 t43.5 90t34.5 113.5t19 137q2 23 10.5 31t28.5 8h123q23 0 30 -7t7 -26q0 -88 -18.5 -170t-47 -153.5t-64.5 -131t-73 -102.5q53 -51 122.5 -86t135.5 -53q23 -6 27 -14t-2 -31l-35 -115q-4 -16 -12 -23t-27 -7q-33 0 -80 13t-99 36.5t-101 56.5t-84 70q-98 -86 -211 -134.5 t-248 -48.5q-94 0 -178 30t-146.5 83t-99.5 130t-37 171zM303 408q0 -102 69.5 -165t172.5 -63q84 0 160.5 32t125.5 83l-337 383q-78 -55 -134.5 -120.5t-56.5 -149.5zM451 1141q0 -35 17 -69t50 -73l47 -55q23 16 47.5 38t44 46.5t32.5 52t13 54.5q0 51 -33.5 88t-93.5 37 q-53 0 -88.5 -34t-35.5 -85z" />
<glyph unicode="'" horiz-adv-x="380" d="M82 1407q0 16 8 26.5t33 10.5h133q45 0 41 -37l-16 -324q-2 -20 -7.5 -29.5t-27.5 -9.5h-113q-23 0 -28 9.5t-7 29.5z" />
<glyph unicode="(" horiz-adv-x="669" d="M86 600q0 238 91 458t255 402q29 31 60 15l98 -56q20 -10 17 -24.5t-13 -28.5q-127 -170 -195.5 -360.5t-68.5 -405.5t68.5 -405.5t195.5 -360.5q10 -14 13 -28.5t-17 -24.5l-98 -55q-31 -16 -60 14q-164 182 -255 402t-91 458z" />
<glyph unicode=")" horiz-adv-x="669" d="M62.5 1394.5q-3.5 14.5 17.5 24.5l98 56q31 16 60 -15q164 -182 255 -402t91 -458t-91.5 -458t-254.5 -402q-29 -31 -60 -14l-98 55q-20 10 -17 24.5t13 28.5q127 170 195.5 360.5t68.5 405.5t-68.5 405.5t-195.5 360.5q-10 14 -13.5 28.5z" />
<glyph unicode="*" horiz-adv-x="753" d="M82 1204l41 121q12 37 47 14l166 -102l-45 195q-8 41 26 41h121q35 0 27 -41l-45 -195l164 102q35 23 47 -14l41 -121q12 -37 -29 -39l-190 -16l155 -145q16 -16 11 -25.5t-19 -20.5l-100 -63q-31 -20 -45 14l-78 189l-78 -189q-14 -35 -45 -14l-100 63 q-14 10 -19.5 19.5t10.5 26.5l158 145l-192 16q-41 2 -29 39z" />
<glyph unicode="+" horiz-adv-x="1071" d="M78 483v115q0 27 9 38t38 11h303v297q0 31 11.5 42t39.5 11h109q29 0 42 -11t13 -40v-299h297q31 0 42 -11t11 -40v-109q0 -29 -11 -42t-40 -13h-299v-301q0 -29 -13.5 -39t-37.5 -10h-115q-27 0 -38 9t-11 38v303h-301q-29 0 -39 13.5t-10 37.5z" />
<glyph unicode="," horiz-adv-x="448" d="M73 -214.5q1 9.5 15 24.5q31 31 57.5 70.5t26.5 76.5q0 10 -4 22.5t-21 34.5q-10 16 -13 24.5t-3 27.5v137q0 29 8 37t37 8h156q29 0 37 -8.5t8 -36.5v-101q0 -113 -59.5 -209t-147.5 -157q-20 -14 -37 -15q-16 0 -31 19l-20 24q-10 12 -9 21.5z" />
<glyph unicode="-" horiz-adv-x="587" d="M72 475v133q0 27 9 38t38 11h344q31 0 42 -11t11 -40v-129q0 -29 -11 -42t-40 -13h-344q-29 0 -39 14.5t-10 38.5z" />
<glyph unicode="." horiz-adv-x="448" d="M113 45v158q0 29 8 37t37 8h155q29 0 37 -8.5t8 -36.5v-158q0 -29 -8 -37t-37 -8h-155q-29 0 -37 8t-8 37z" />
<glyph unicode="/" horiz-adv-x="688" d="M16 25l430 1378q8 25 18.5 33t37.5 8h139q45 0 31 -49l-430 -1379q-8 -25 -18.5 -33t-37.5 -8h-139q-45 0 -31 50z" />
<glyph unicode="0" d="M68 702q0 143 29.5 277.5t92 238t158.5 165t232 61.5q137 0 232 -60.5t154.5 -161t87 -233.5t27.5 -276q0 -145 -27.5 -278.5t-88 -236t-156.5 -163t-234 -60.5q-137 0 -233 59.5t-157.5 159t-89 231.5t-27.5 277zM342 713q0 -115 12.5 -208t40 -159.5t71.5 -103.5 t109 -37q66 0 111 37t71.5 103.5t38 159.5t11.5 208q0 233 -54.5 368.5t-172.5 135.5q-63 0 -108.5 -37t-74 -103.5t-42 -159t-13.5 -204.5z" />
<glyph unicode="1" d="M160 1081q-23 45 20 70l410 244q23 14 42 18t50 4h98q51 0 51 -51v-1305q0 -35 -14 -48t-49 -13h-133q-41 0 -53.5 11.5t-12.5 47.5v1069l-284 -161q-23 -14 -42.5 -12.5t-33.5 30.5z" />
<glyph unicode="2" d="M104 63v99q0 31 7.5 47t29.5 39q96 98 196.5 189t186.5 181q117 123 185.5 223.5t68.5 190.5q0 96 -59.5 142.5t-151.5 46.5q-70 0 -139.5 -21.5t-155.5 -69.5q-20 -10 -37.5 -8t-29.5 29l-47 102q-10 23 -6 39.5t28 30.5q92 55 198.5 88t223.5 33q94 0 176 -25.5 t141.5 -76t93.5 -124t34 -169.5q0 -88 -35 -170t-93.5 -162t-133 -156t-154.5 -151q-53 -51 -105.5 -99.5t-97.5 -91.5h543q31 0 45 -11t14 -40v-109q0 -59 -59 -59h-803q-37 0 -50.5 14.5t-13.5 48.5z" />
<glyph unicode="3" d="M108 83.5q-8 18.5 3 49.5l36 100q8 23 25.5 28t40.5 -5q63 -29 135 -47.5t150 -18.5q123 0 193.5 66t70.5 172q0 70 -30 115t-78 71.5t-106.5 38t-113.5 11.5h-37q-29 0 -39 16t-10 39v86q0 25 9.5 39t37.5 14h68q113 0 178.5 48t65.5 153q0 86 -56.5 131t-150.5 45 q-61 0 -127 -18.5t-131 -53.5q-23 -10 -39.5 -9t-26.5 28l-39 98q-14 39 19 61q84 53 179 78t206 25q82 0 158.5 -22.5t136 -68.5t95.5 -114t36 -158q0 -111 -62.5 -195.5t-156.5 -115.5q55 -14 104 -46t87 -77t60.5 -102t22.5 -125q0 -102 -42 -184t-112.5 -140.5 t-162 -89.5t-191.5 -31q-111 0 -205 20.5t-170 59.5q-23 10 -31 28.5z" />
<glyph unicode="4" d="M57 371v75q0 29 5.5 48.5t21.5 54.5l387 815q12 29 26.5 41t45.5 12h147q33 0 40 -19.5t-5 -45.5l-381 -826h416v318q0 31 15.5 41t41.5 10h148q29 0 43 -10.5t14 -40.5v-793q0 -29 -16.5 -40t-40.5 -11h-150q-27 0 -41 11.5t-14 41.5v254h-645q-37 0 -47.5 17.5 t-10.5 46.5z" />
<glyph unicode="5" d="M123 143l47 109q20 45 70 16q74 -41 149.5 -58t151.5 -17q55 0 102 16t82 47t55.5 76t20.5 102q0 125 -78 193q-49 43 -117.5 60.5t-154.5 17.5h-170q-39 0 -54.5 19t-15.5 58v566q0 41 15.5 55t49.5 14h664q59 0 59 -57v-107q0 -29 -12 -43t-45 -14h-471v-297h37 q111 0 211 -25.5t177 -80t123 -140.5t46 -207q0 -113 -42 -200.5t-113.5 -147t-170 -91.5t-211.5 -32q-203 0 -378 95q-47 25 -27 73z" />
<glyph unicode="6" d="M94 612q0 156 37 305.5t114 266t196.5 188.5t285.5 72q106 0 203 -31q27 -8 33 -23.5t2 -37.5l-25 -111q-4 -20 -20.5 -30.5t-38.5 -2.5q-25 8 -61 15.5t-75 7.5q-92 0 -156.5 -33t-107.5 -88t-66.5 -128t-29.5 -153q104 86 256 86q92 0 171 -27.5t136.5 -80.5t90 -135.5 t32.5 -188.5q0 -102 -31.5 -194t-92 -162t-148.5 -111t-201 -41q-145 0 -241.5 54.5t-155 143.5t-83 204t-24.5 235zM365 549q0 -168 59 -262t176 -94q55 0 94 24.5t62.5 64.5t35 88t11.5 95t-11.5 90t-35 76t-61.5 52t-89 19q-63 0 -130.5 -29.5t-110.5 -72.5v-51z" />
<glyph unicode="7" d="M123 1249v113q0 27 10 41t41 14h834q57 0 57 -55v-100q0 -45 -23 -93l-538 -1116q-16 -35 -35.5 -44t-54.5 -9h-181q-31 0 -38 23.5t6 46.5l557 1122h-582q-31 0 -42 15.5t-11 41.5z" />
<glyph unicode="8" d="M74 395q0 61 21.5 116.5t58 101.5t86 84t104.5 63q-90 43 -149.5 126t-59.5 185q0 88 35 156.5t96.5 117t142 74t173.5 25.5q90 0 167.5 -23.5t136 -70.5t92.5 -116t34 -157q0 -49 -17.5 -95t-47 -86t-68.5 -72.5t-82 -55.5q125 -51 202.5 -143t77.5 -207 q0 -102 -41 -184t-110.5 -139.5t-161.5 -88.5t-193 -31q-102 0 -192 27t-157.5 79t-107.5 131t-40 183zM338 408q0 -51 19.5 -93.5t52 -72t75.5 -46t93 -16.5q49 0 91 14.5t74.5 43t51 71t18.5 97.5q0 51 -24.5 92t-62.5 72.5t-83 55t-86 40.5q-41 -18 -80 -45t-69.5 -59 t-50 -70.5t-19.5 -83.5zM393 1077q0 -39 16.5 -71.5t43 -61.5t60.5 -51.5t71 -40.5q29 16 58.5 36.5t54 47.5t40 59.5t15.5 73.5q0 76 -48.5 124t-132.5 48q-37 0 -68.5 -12t-56 -35t-39 -52.5t-14.5 -64.5z" />
<glyph unicode="9" d="M84 936q0 102 31.5 194.5t92 162t148.5 110.5t201 41q143 0 240.5 -54.5t156 -143.5t83 -203.5t24.5 -235.5q0 -158 -37 -307.5t-113.5 -266t-196.5 -187.5t-286 -71q-109 0 -203 31q-27 8 -33 23.5t-2 38.5l25 110q4 20 20.5 30.5t38.5 2.5q25 -8 61 -15.5t75 -7.5 q92 0 156.5 33t107.5 88.5t66.5 128t29.5 152.5q-104 -86 -256 -86q-92 0 -171 27.5t-136 81t-90 134t-33 189.5zM352 954q0 -47 11.5 -90t35 -75.5t60.5 -52t90 -19.5q63 0 131 29.5t111 72.5v51q0 168 -59.5 262.5t-176.5 94.5q-55 0 -94 -24.5t-62.5 -64.5t-35 -88.5 t-11.5 -95.5z" />
<glyph unicode=":" horiz-adv-x="485" d="M135 45v158q0 29 8.5 37t36.5 8h156q29 0 37 -8.5t8 -36.5v-158q0 -29 -8 -37t-37 -8h-156q-29 0 -37 8t-8 37zM135 791v157q0 29 8.5 37t36.5 8h156q29 0 37 -8t8 -37v-157q0 -29 -8 -37.5t-37 -8.5h-156q-29 0 -37 8.5t-8 37.5z" />
<glyph unicode=";" horiz-adv-x="485" d="M97 -214.5q1 9.5 16 24.5q31 31 57.5 70.5t26.5 76.5q0 10 -4.5 22.5t-20.5 34.5q-10 16 -13 24.5t-3 27.5v137q0 29 8 37t37 8h155q29 0 37 -8.5t8 -36.5v-101q0 -113 -59 -209t-147 -157q-20 -14 -37 -15q-16 0 -31 19l-21 24q-10 12 -9 21.5zM156 791v157q0 29 8 37 t37 8h155q29 0 37 -8t8 -37v-157q0 -29 -8 -37.5t-37 -8.5h-155q-29 0 -37 8.5t-8 37.5z" />
<glyph unicode="&#x3c;" horiz-adv-x="1071" d="M109 524v62q0 23 7 35t27 24l676 418q41 25 60 -8l71 -121q10 -18 9 -29.5t-21 -23.5l-516 -326l516 -326q20 -12 21.5 -23t-9.5 -30l-71 -121q-18 -33 -60 -8l-676 418q-20 12 -27 24.5t-7 34.5z" />
<glyph unicode="=" horiz-adv-x="1071" d="M78 295v115q0 27 9 38t38 11h815q31 0 42 -11.5t11 -39.5v-109q0 -29 -11 -42t-40 -13h-815q-29 0 -39 13t-10 38zM78 688v115q0 27 9 38t38 11h815q31 0 42 -11.5t11 -39.5v-109q0 -29 -11 -42t-40 -13h-815q-29 0 -39 13.5t-10 37.5z" />
<glyph unicode="&#x3e;" horiz-adv-x="1071" d="M110 205.5q1 11.5 21 23.5l516 326l-516 326q-20 12 -21 23t9 30l71 121q18 33 60 8l676 -418q20 -12 27.5 -24.5t7.5 -34.5v-62q0 -23 -7.5 -35t-27.5 -24l-676 -418q-41 -25 -60 8l-71 121q-10 18 -9 29.5z" />
<glyph unicode="?" horiz-adv-x="901" d="M93 1336.5q1 11.5 18 21.5q78 43 163.5 64.5t167.5 21.5q76 0 146.5 -23.5t123 -68.5t84 -108.5t31.5 -145.5q0 -84 -37.5 -158t-97.5 -135l-149 -158q-37 -39 -60.5 -79t-27.5 -113v-60q0 -31 -31 -30h-133q-16 0 -25.5 6t-13.5 24q-6 29 -8 51.5t-2 51.5q0 72 25.5 129 t78.5 110l146 150q31 33 65.5 82t34.5 104q0 49 -17.5 83t-45 53.5t-63.5 28.5t-73 9q-47 0 -106.5 -16.5t-106.5 -42.5q-20 -10 -29.5 -5t-13.5 17l-41 111q-4 14 -3 25.5zM209 131q0 12 20 33l103 102q20 20 30 21q10 0 31 -21l103 -102q12 -12 16 -19.5t4 -13.5t-4 -13 t-16 -20l-103 -102q-21 -21 -31 -21t-30 21l-103 102q-20 20 -20 33z" />
<glyph unicode="@" horiz-adv-x="1703" d="M100 631q0 176 66.5 325.5t180.5 258t266.5 169t326.5 60.5q143 0 266 -45t213 -128t141.5 -201t51.5 -265q0 -86 -28 -174t-80 -160t-126.5 -118t-169.5 -46q-72 0 -132 34t-75 114h-2q-43 -61 -100 -95t-127 -34q-63 0 -107 23.5t-73 63.5t-42 93t-13 110 q0 80 25.5 164t74.5 151.5t119.5 110.5t158.5 43q51 0 98.5 -26.5t65.5 -77.5l15 57q4 20 30 21h95q33 0 26 -31l-100 -414q-6 -25 -10.5 -51t-4.5 -53q0 -41 19.5 -67.5t64.5 -26.5t88.5 26.5t77 76.5t54 122t20.5 162q0 117 -38 206t-106.5 149.5t-163.5 91t-208 30.5 q-133 0 -243.5 -51t-190.5 -139.5t-125 -205t-45 -247.5q0 -125 39 -220t110.5 -158.5t171 -96.5t219.5 -33q88 0 178.5 16.5t174.5 49.5q29 12 39 -15l28 -76q6 -16 4 -24t-20 -19q-92 -47 -200.5 -66.5t-223.5 -19.5q-156 0 -293 42t-239.5 124t-162 205t-59.5 285z M741 621q0 -23 4.5 -45.5t15.5 -41t28.5 -30.5t41.5 -12q53 0 87 30.5t59 77.5l57 246q-10 35 -32.5 64.5t-69.5 29.5q-51 0 -87 -36t-59.5 -86t-34 -105.5t-10.5 -91.5z" />
<glyph unicode="A" horiz-adv-x="1316" d="M17 14q-3 7 -3 16q0 10 4 21l500 1325q8 18 20.5 29.5t34.5 11.5h164q43 0 58 -37l503 -1327q4 -12 4 -21.5t-4 -16.5q-8 -15 -30 -15h-187q-33 0 -46 12.5t-23 36.5l-107 301h-518l-106 -307q-6 -20 -18.5 -31.5t-37.5 -11.5h-176q-25 0 -32 14zM457 549h379l-146 432 q-14 43 -23.5 76t-17.5 57h-4q-16 -53 -43 -135z" />
<glyph unicode="B" horiz-adv-x="1224" d="M147 59v1305q0 33 14.5 43t47.5 10h307q248 0 381 -81t133 -265q0 -109 -59.5 -192.5t-171.5 -108.5v-2q74 -6 136 -32.5t108.5 -73t72 -108.5t25.5 -140q0 -125 -46 -205t-124 -126t-179.5 -64.5t-209.5 -18.5h-381q-33 0 -43.5 13.5t-10.5 45.5zM410 203h151 q53 0 103.5 5t89.5 21q53 23 85.5 71t32.5 122q0 72 -29.5 119t-78.5 71q-47 23 -100.5 30t-118.5 7h-135v-446zM410 836h106q55 0 102.5 8t81 31.5t53 63.5t19.5 101q0 49 -18.5 83t-51 54.5t-78.5 30t-100 9.5h-114v-381z" />
<glyph unicode="C" horiz-adv-x="1220" d="M90 702q0 158 46 293t132 235.5t209 157t277 56.5q209 0 385 -86q25 -12 31 -24q2 -4 2 -10q0 -11 -7 -28l-47 -129q-8 -25 -27 -25q-10 0 -24 7q-78 41 -148.5 57.5t-148.5 16.5q-106 0 -181 -45t-123 -117t-69.5 -164t-21.5 -184q0 -119 26.5 -214.5t77.5 -163 t126 -103t169 -35.5q147 0 295 65q20 10 32.5 7t22.5 -25l45 -121q4 -11 4 -21q0 -27 -32 -43q-102 -41 -198.5 -62.5t-209.5 -21.5q-162 0 -282.5 54.5t-200.5 150.5t-120 230.5t-40 291.5z" />
<glyph unicode="D" horiz-adv-x="1417" d="M147 57v1299q0 33 12.5 47t51.5 14h295q178 0 303 -22.5t227 -81.5q139 -80 216 -231t77 -380q0 -186 -59.5 -322t-163.5 -226q-96 -80 -225 -117t-283 -37h-391q-31 0 -45.5 11.5t-14.5 45.5zM414 221h157q106 0 193.5 21.5t153.5 87.5q61 61 95 153.5t34 221.5 q0 141 -41 243.5t-119 161.5q-63 47 -144 65.5t-180 18.5h-149v-973z" />
<glyph unicode="E" horiz-adv-x="1101" d="M150 225v1141q0 51 47 51h772q31 0 39 -12t4 -35l-15 -123q-4 -29 -20 -36t-49 -7h-514v-370h475q29 0 39 -11.5t10 -34.5v-120q0 -23 -10 -34t-39 -11h-475v-328q0 -47 16 -64.5t64 -17.5h469q51 0 51 -47v-117q0 -49 -49 -49h-590q-119 0 -172 53t-53 172z" />
<glyph unicode="F" horiz-adv-x="1089" d="M150 55v1311q0 51 47 51h768q48 0 48 -38q0 -4 -1 -9l-15 -123q-4 -29 -18 -36t-43 -7h-522v-370h473q29 0 40 -11.5t11 -34.5v-116q0 -49 -49 -49h-475v-572q0 -51 -49 -51h-160q-31 0 -43 10t-12 45z" />
<glyph unicode="G" horiz-adv-x="1390" d="M88 705q0 160 50 296t140.5 234t218.5 153.5t285 55.5q98 0 190.5 -18.5t184.5 -59.5q29 -12 30 -27.5t-7 -33.5l-50 -127q-9 -23 -31 -23q-11 0 -26 6q-51 23 -129 41.5t-149 18.5q-84 0 -160 -30t-129 -87q-66 -68 -100.5 -166t-34.5 -225q0 -240 104.5 -378 t290.5 -138q63 0 126.5 9t104.5 25v392h-182q-23 0 -34 9t-11 36v125q0 25 12.5 33t34.5 8h397q27 0 38.5 -9.5t11.5 -38.5v-639q0 -31 -10.5 -46t-39.5 -31q-43 -23 -97 -40.5t-115.5 -29.5t-125 -18.5t-120.5 -6.5q-160 0 -284 53.5t-210 148.5t-130 229.5t-44 298.5z" />
<glyph unicode="H" horiz-adv-x="1411" d="M150 51v1317q0 27 15 38t40 11h160q25 0 38 -10t13 -39v-534h581v534q0 49 54 49h161q25 0 37.5 -10t12.5 -39v-1317q0 -51 -50 -51h-161q-53 0 -54 51v572h-581v-572q0 -51 -51 -51h-160q-55 0 -55 51z" />
<glyph unicode="I" horiz-adv-x="823" d="M119 1286v90q0 16 9 28.5t28 12.5h501q23 0 33 -11t10 -28v-90q0 -25 -10 -34t-33 -9h-116v-1073h112q23 0 33 -12.5t10 -30.5v-88q0 -41 -37 -41h-491q-41 0 -41 39v92q0 41 41 41h111v1073h-119q-41 0 -41 41z" />
<glyph unicode="J" horiz-adv-x="858" d="M86 43l20 117q4 23 15.5 29t34.5 1q20 -4 47.5 -8t56.5 -4q41 0 78 11.5t63 43.5q43 57 43 191v821h-231q-25 0 -34 13.5t-9 31.5v84q0 43 43 43h444q49 0 50 -47v-901q0 -141 -33 -244.5t-111 -165.5q-59 -47 -138 -65.5t-161 -18.5q-37 0 -77 4.5t-70 12.5 q-23 6 -29 16q-4 6 -4 17q0 8 2 18z" />
<glyph unicode="K" horiz-adv-x="1220" d="M150 51v1317q0 49 51 49h164q25 0 37 -10t12 -39v-580h4l422 592q16 20 31.5 28.5t43.5 8.5h158q23 0 30 -8t7 -18q0 -16 -16 -39l-461 -619l534 -657q16 -18 20.5 -28.5t4.5 -20.5t-8 -18.5t-31 -8.5h-195q-37 0 -57 12.5t-41 38.5l-442 567h-4v-567q0 -51 -49 -51h-164 q-51 0 -51 51z" />
<glyph unicode="L" horiz-adv-x="1009" d="M150 225v1141q0 51 49 51h163q51 0 52 -53v-1063q0 -47 16 -64.5t64 -17.5h438q49 0 49 -47v-123q0 -29 -13.5 -39t-35.5 -10h-557q-119 0 -172 53t-53 172z" />
<glyph unicode="M" horiz-adv-x="1787" d="M147 53l52 1317q2 47 49 47h121q31 0 45 -11t24 -34l473 -1012h4l433 1012q10 25 23 35t42 10h121q45 0 47 -45l61 -1317q0 -4 1 -9q0 -21 -9 -32q-10 -14 -39 -14h-165q-33 0 -42.5 14.5t-11.5 53.5l-28 831h-5l-348 -862q-10 -23 -21 -30t-34 -7h-72q-25 0 -39 7 t-24 32l-387 860h-4l-19 -848q0 -35 -13 -43t-42 -8h-139q-55 0 -54 53z" />
<glyph unicode="N" horiz-adv-x="1488" d="M150 51v1311q0 33 13 44t42 11h133q25 0 39 -8t31 -31l673 -925h4v911q0 53 54 53h149q53 0 53 -53v-1309q0 -35 -13 -45t-36 -10h-131q-53 0 -84 43l-667 913h-4v-903q0 -53 -54 -53h-147q-29 0 -42 10t-13 41z" />
<glyph unicode="O" horiz-adv-x="1423" d="M88 705q0 166 44 302t127 233t198.5 150.5t261.5 53.5q152 0 267.5 -54.5t193 -151.5t116.5 -230t39 -291q0 -174 -47 -311.5t-131 -232.5t-199.5 -146.5t-252.5 -51.5q-147 0 -262 51.5t-194 146.5t-120 230.5t-41 301.5zM371 711q0 -256 89 -384t253 -128 q154 0 247 130t93 382q0 260 -87 385t-253 125q-78 0 -140.5 -35t-107.5 -100.5t-69.5 -161t-24.5 -213.5z" />
<glyph unicode="P" horiz-adv-x="1138" d="M150 55v1307q0 31 11 43t40 12h297q164 0 282.5 -34.5t194.5 -120.5q49 -57 75.5 -132t26.5 -159q0 -123 -43 -212t-119 -149q-78 -59 -179 -85.5t-230 -26.5h-92v-449q0 -23 -11.5 -36t-40.5 -13h-163q-25 0 -37 12.5t-12 42.5zM414 700h55q90 0 161.5 12.5t119.5 63.5 q61 68 61 185q0 70 -20.5 117.5t-58.5 77.5t-92 43t-120 13h-106v-512z" />
<glyph unicode="Q" horiz-adv-x="1411" d="M88 702q0 154 41 289t121 235.5t197.5 159t271.5 58.5q158 0 274.5 -58.5t192.5 -158t112.5 -231.5t36.5 -279q0 -213 -75.5 -384t-229.5 -265q55 -31 129 -61t160 -54q39 -10 46 -27q3 -6 3 -15q0 -13 -6 -30l-37 -108q-10 -29 -31 -35q-4 -1 -11 -1q-24 0 -73 15 q-92 29 -169.5 79t-139.5 91q-41 27 -74 42.5t-92 15.5h-44t-44 2q-139 8 -244.5 66t-175 155.5t-104.5 224.5t-35 274zM371 711q0 -115 19.5 -209t61.5 -163t106.5 -106.5t154.5 -37.5q84 0 147.5 38.5t106.5 107.5t64.5 164t21.5 206q0 115 -19.5 209t-60.5 160.5 t-105.5 103.5t-154.5 37q-84 0 -147.5 -39t-106.5 -108.5t-65.5 -163t-22.5 -199.5z" />
<glyph unicode="R" horiz-adv-x="1212" d="M150 51v1307q0 35 10 47t45 12h303q68 0 134.5 -6t129 -22.5t116.5 -46t95 -76.5q49 -57 73.5 -130t24.5 -157q0 -141 -70.5 -247.5t-193.5 -160.5l330 -510q13 -23 13 -38q0 -4 -1 -7q-4 -16 -33 -16h-182q-33 0 -48 9t-30 32l-295 481h-157v-471q0 -51 -47 -51h-168 q-49 0 -49 51zM414 721h127q123 0 197.5 64.5t74.5 189.5q0 133 -82 187.5t-215 54.5h-102v-496z" />
<glyph unicode="S" horiz-adv-x="1105" d="M98 1057q0 94 42 165.5t109.5 121t151.5 75t170 25.5q102 0 189.5 -16.5t177.5 -55.5q29 -12 37 -26.5t-2 -40.5l-49 -125q-10 -27 -26.5 -30t-41.5 7q-66 29 -137.5 46.5t-132.5 17.5q-37 0 -74 -8.5t-66.5 -27t-48 -48t-18.5 -72.5q0 -31 13.5 -56.5t33.5 -46t47 -36 t51 -27.5l228 -111q123 -59 197.5 -146t74.5 -228q0 -106 -40 -188.5t-108.5 -137.5t-158.5 -84t-191 -29q-92 0 -195.5 16.5t-195.5 49.5q-29 10 -34 26.5t3 38.5l43 134q8 27 24.5 31.5t43.5 -5.5q72 -27 149.5 -44t155.5 -17q41 0 83 10t76 32.5t55.5 56.5t21.5 83 q0 72 -45 114t-105 70l-266 134q-111 53 -176.5 142t-65.5 210z" />
<glyph unicode="T" horiz-adv-x="1177" d="M27 1253v121q0 43 45 43h1038q38 0 52 -11q10 -8 10 -26q0 -7 -1 -14l-14 -119q-4 -25 -18.5 -34t-44.5 -9h-371v-1153q0 -51 -49 -51h-166q-51 0 -51 51v1153h-383q-47 0 -47 49z" />
<glyph unicode="U" horiz-adv-x="1474" d="M143 633v735q0 49 54 49h161q49 0 50 -49v-713q0 -113 16 -198.5t55 -143t103.5 -86t160.5 -28.5q92 0 155 29.5t100.5 88t54 143.5t16.5 195v713q0 49 51 49h162q49 0 49 -49v-739q0 -317 -148.5 -485.5t-449.5 -168.5q-162 0 -274.5 44t-182 128t-101.5 206t-32 280z " />
<glyph unicode="V" horiz-adv-x="1335" d="M41 1401q8 16 37 16h178q33 0 48 -9t26 -34l362 -1012h6l342 1006q10 29 24.5 39t51.5 10h141q42 0 42 -30q0 -11 -5 -25l-479 -1317q-10 -23 -22.5 -34t-40.5 -11h-136q-53 0 -71 51l-502 1305q-6 16 -6 28q0 10 4 17z" />
<glyph unicode="W" horiz-adv-x="1925" d="M39 1356q-4 14 -4 25q0 36 47 36h186q33 0 47.5 -11t22.5 -40l250 -944h2l260 950q8 27 20.5 36t40.5 9h133q31 0 43.5 -10t18.5 -33l260 -952h4l248 948q8 29 20.5 38t42.5 9h160q29 0 40 -13q6 -7 6 -20q0 -12 -5 -28l-379 -1301q-10 -33 -24.5 -44t-46.5 -11h-127 q-31 0 -46.5 12.5t-23.5 40.5l-266 938h-4l-267 -932q-10 -35 -26.5 -47t-48.5 -12h-117q-35 0 -50.5 13.5t-25.5 47.5z" />
<glyph unicode="X" horiz-adv-x="1241" d="M39 18q-2 5 -2 10q0 13 10 29l424 672l-395 633q-12 20 -6 37.5t32 17.5h197q47 0 74 -45l252 -424h2l258 430q14 23 27.5 31t41.5 8h185q27 0 33 -17.5t-9 -37.5l-403 -612l438 -691q10 -16 10 -29q0 -7 -3 -13q-9 -17 -38 -17h-194q-53 0 -80 45l-283 477h-2l-282 -477 q-14 -25 -32 -35t-50 -10h-170q-29 0 -35 18z" />
<glyph unicode="Y" horiz-adv-x="1212" d="M35 1400q6 17 35 17h190q51 0 72 -39l295 -579h4l291 575q12 25 27.5 34t43.5 9h150q37 0 37 -23q0 -11 -9 -28l-421 -780v-539q0 -47 -48 -47h-172q-47 0 -47 51v524l-444 793q-6 10 -6 20q0 6 2 12z" />
<glyph unicode="Z" horiz-adv-x="1198" d="M57 43v63q0 18 4.5 33t16.5 33l678 1030v2h-600q-51 0 -52 47v125q0 41 41 41h916q29 0 39 -12t10 -33v-49q0 -23 -4 -44.5t-21 -43.5l-673 -1020v-2h680q23 0 35 -9t12 -38v-117q0 -49 -52 -49h-991q-20 0 -29.5 12.5t-9.5 30.5z" />
<glyph unicode="[" horiz-adv-x="686" d="M168 -236v1620q0 37 13.5 48.5t41.5 11.5h375q35 0 46 -9.5t11 -37.5v-105q0 -23 -9 -33t-38 -10h-192v-1349h188q33 0 42 -8.5t9 -34.5v-105q0 -27 -9 -36t-42 -9h-381q-35 0 -45 11.5t-10 45.5z" />
<glyph unicode="\" horiz-adv-x="688" d="M16 1395q-14 49 31 49h139q27 0 37 -8.5t19 -32.5l430 -1378q14 -49 -31 -50h-139q-27 0 -37 8.5t-19 32.5z" />
<glyph unicode="]" horiz-adv-x="684" d="M31 -141q0 25 10 34t39 9h188v1349h-186q-35 0 -43 8.5t-8 34.5v105q0 27 8 36t43 9h381q35 0 44 -11.5t9 -46.5v-1619q0 -39 -12 -49.5t-41 -10.5h-377q-35 0 -45 9.5t-10 37.5v105z" />
<glyph unicode="^" horiz-adv-x="1071" d="M62.5 788.5q-3.5 14.5 15.5 40.5l385 553q14 18 25.5 26.5t31.5 8.5h29q20 0 31.5 -8t25.5 -27l385 -553q18 -27 15.5 -41t-23.5 -28l-113 -78q-18 -12 -31.5 -8t-29.5 26l-274 412l-275 -412q-16 -23 -29.5 -26.5t-31.5 8.5l-113 78q-20 14 -23.5 28.5z" />
<glyph unicode="_" horiz-adv-x="1024" d="M0 -203q0 18 7 24.5t28 6.5h948q29 0 35 -6t6 -29v-41q0 -23 -6 -31t-29 -8h-948q-27 0 -34 7.5t-7 23.5v53z" />
<glyph unicode="`" horiz-adv-x="704" d="M131 1358l62 92q16 23 31.5 25t39.5 -17l281 -198q23 -16 24.5 -29.5t-14.5 -36.5l-35 -51q-16 -23 -29.5 -25t-35.5 10l-312 172q-37 20 -12 58z" />
<glyph unicode="a" horiz-adv-x="1142" d="M66 479q0 133 36.5 234.5t98 169t141.5 102.5t166 35q82 0 152.5 -33t109.5 -86l4 55q4 37 43 37h144q43 0 43 -45v-723q0 -29 7 -42t29 -13h17q37 0 37 -35v-96q0 -39 -41 -39h-99q-80 0 -118.5 34t-49.5 87h-4q-47 -61 -128 -103.5t-169 -42.5q-109 0 -187.5 41 t-130.5 111t-76.5 161t-24.5 191zM322 496q0 -66 12 -123.5t38.5 -100.5t67.5 -68.5t99 -25.5q37 0 71.5 13.5t63 33t49 44t33.5 48.5v396q-31 45 -87.5 74.5t-115.5 29.5q-47 0 -89 -20.5t-74 -60.5t-50 -100.5t-18 -139.5z" />
<glyph unicode="b" horiz-adv-x="1134" d="M129 51v1335q0 25 8 38.5t33 17.5l166 22h7q11 0 21 -5q12 -7 13 -32v-507q49 43 119.5 71.5t150.5 28.5q86 0 149.5 -25.5t112.5 -70.5q82 -72 119 -185.5t37 -242.5q0 -106 -28.5 -200.5t-83 -165.5t-135.5 -113t-185 -42q-168 0 -279 117l-8 -67q-2 -25 -43 -25h-125 q-49 0 -49 51zM377 281q41 -47 92 -74t109 -27q68 0 111.5 26.5t70 71t38 101t11.5 115.5q0 61 -10.5 118.5t-36 101.5t-68.5 70.5t-106 26.5q-57 0 -113.5 -26.5t-97.5 -65.5v-438z" />
<glyph unicode="c" horiz-adv-x="915" d="M61 487q0 119 35 217.5t100.5 168t160 108.5t212.5 39q70 0 139.5 -14.5t135.5 -42.5q20 -10 22 -21.5t-2 -32.5l-26 -110q-10 -35 -47 -19q-45 20 -94.5 32.5t-102.5 12.5q-133 0 -205 -87t-72 -238q0 -147 67 -239.5t200 -92.5q66 0 113.5 11t101.5 34q37 12 45 -16 l28 -101q4 -14 4 -24q0 -7 -2 -12q-4 -13 -26 -23q-74 -35 -144.5 -48.5t-152.5 -13.5q-238 0 -364 137.5t-126 374.5z" />
<glyph unicode="d" horiz-adv-x="1140" d="M70 485q0 106 29.5 203.5t86 171.5t140.5 117t192 43q70 0 136.5 -25.5t109.5 -70.5v462q0 25 8 38.5t33 17.5l166 22h7q12 0 22 -5q12 -7 12 -32v-1376q0 -27 -13.5 -39t-31.5 -12h-133q-45 0 -50 41l-4 55q-43 -49 -120.5 -85t-157.5 -36q-111 0 -193 41t-135 111 t-78.5 163t-25.5 195zM328 500q0 -63 12 -122t39 -104t71 -71.5t105 -26.5q57 0 117.5 32t91.5 71v442q-31 41 -84 70.5t-113 29.5q-61 0 -107 -26.5t-75 -71.5t-43 -102.5t-14 -120.5z" />
<glyph unicode="e" horiz-adv-x="1054" d="M70 500q0 115 36.5 211t103 164.5t160 106.5t208.5 38q94 0 169.5 -33t129.5 -90q72 -74 96 -168t24 -199v-30q0 -37 -14 -48.5t-53 -11.5h-600q12 -119 91 -192.5t202 -73.5q66 0 129 13.5t122 35.5q25 10 36.5 4t15.5 -22l28 -105q6 -20 1 -34.5t-29 -24.5 q-76 -35 -170 -50.5t-174 -15.5q-121 0 -216.5 37t-161 105.5t-100 165t-34.5 217.5zM334 602h420v23q-2 39 -14.5 76.5t-36 65.5t-58.5 45t-82 17q-49 0 -89 -18t-69.5 -50t-47 -73t-23.5 -86z" />
<glyph unicode="f" horiz-adv-x="745" d="M37 874v78q0 41 39 41h114v56q0 51 4.5 91t10.5 74q25 129 108.5 203t237.5 74q51 0 111.5 -11.5t105.5 -31.5q23 -10 26 -28q1 -5 1 -12q0 -15 -4 -34l-17 -86q-4 -23 -15 -28t-32 2q-33 10 -67.5 18t-71.5 8q-92 0 -121 -55t-29 -146v-94h228q41 0 41 -35v-96 q0 -39 -41 -39h-228v-766q0 -29 -11 -43t-40 -14h-147q-49 0 -50 53v770h-110q-29 0 -36 9.5t-7 41.5z" />
<glyph unicode="g" horiz-adv-x="1142" d="M70 485q0 102 29.5 198.5t87 171.5t143.5 120t196 45q70 0 138.5 -27.5t113.5 -87.5l4 51q2 37 47 37h136q29 0 39 -11t10 -38v-876q0 -250 -114 -383.5t-372 -133.5q-76 0 -152.5 15.5t-150.5 48.5q-25 10 -31 24.5t3 38.5l32 99q8 25 20.5 30t39.5 -6q55 -23 115.5 -38 t113.5 -15q76 0 125 19.5t75.5 55.5t37 86t10.5 111v82q-23 -23 -54.5 -42t-67.5 -32.5t-74 -21.5t-70 -8q-190 0 -301 117q-66 66 -97.5 162t-31.5 208zM328 500q0 -68 17 -134.5t65 -111.5q29 -29 66.5 -42t78.5 -13q59 0 119.5 29.5t91.5 68.5v424q-31 41 -85 70.5 t-114 29.5q-47 0 -85 -16.5t-66 -42.5q-47 -47 -67.5 -119t-20.5 -143z" />
<glyph unicode="h" horiz-adv-x="1153" d="M129 51v1335q0 25 8 38.5t33 17.5l166 22h7q11 0 21 -5q12 -7 13 -32v-518q66 53 153.5 82t169.5 29q172 0 248 -100.5t76 -266.5v-602q0 -51 -51 -51h-144q-53 0 -53 51v559q0 84 -30.5 138.5t-122.5 54.5q-59 0 -129 -29t-117 -69v-654q0 -51 -51 -51h-144 q-53 0 -53 51z" />
<glyph unicode="i" horiz-adv-x="534" d="M113 1251q0 12 20 33l103 102q20 20 30 21q10 0 31 -21l102 -102q20 -20 21 -33q0 -6 -4 -13t-17 -19l-102 -103q-21 -20 -31 -20t-30 20l-103 103q-12 12 -16 19t-4 13zM145 51v895q0 47 54 47h143q25 0 38 -9t13 -38v-895q0 -51 -51 -51h-143q-53 0 -54 51z" />
<glyph unicode="j" horiz-adv-x="581" d="M-168 -381l21 115q6 29 32 26q18 -2 38 -4t38 -2q55 0 112.5 23.5t86.5 77.5q28 55 28 150v7v936q0 23 13.5 34t36.5 11h151q47 0 47 -45v-901q0 -141 -31.5 -241.5t-103.5 -161.5q-53 -45 -124 -67.5t-175 -22.5q-29 0 -65.5 3t-71.5 11q-25 6 -31 20q-4 8 -4 17 q0 7 2 14zM156 1251q0 12 20 33l103 102q20 20 30 21q10 0 31 -21l102 -102q20 -20 21 -33q0 -6 -4 -13t-17 -19l-102 -103q-21 -20 -31 -20t-30 20l-103 103q-12 12 -16 19t-4 13z" />
<glyph unicode="k" horiz-adv-x="991" d="M129 51v1335q0 25 8 38.5t33 17.5l166 22h7q11 0 21 -5q12 -7 13 -32v-831h4l268 369q12 16 23.5 22t32.5 6h180q23 0 28 -13t-8 -30l-293 -368l336 -527q12 -19 12 -32q0 -4 -1 -8q-5 -15 -29 -15h-187q-29 0 -47 9t-34 34l-263 430l-22 -20v-402q0 -51 -51 -51h-144 q-53 0 -53 51z" />
<glyph unicode="l" horiz-adv-x="505" d="M129 49v1337q0 25 8 38.5t33 17.5l166 22h7q11 0 21 -5q12 -7 13 -32v-1376q0 -51 -45 -51h-156q-47 0 -47 49z" />
<glyph unicode="m" horiz-adv-x="1740" d="M129 51v895q0 47 49 47h133q49 0 51 -39l3 -51q63 55 142 86t159 31q94 0 159.5 -37t100.5 -96q70 66 163 99.5t187 33.5q113 0 183.5 -47t103.5 -107q29 -57 39 -127.5t10 -169.5v-518q0 -51 -49 -51h-144q-53 0 -53 51v561q0 41 -6 77t-23.5 61.5t-47 41t-77.5 15.5 q-59 0 -121.5 -26.5t-109.5 -65.5q2 -6 3 -53.5t2 -103.5t2 -105.5t1 -59.5v-342q0 -51 -49 -51h-135q-53 0 -53 51v561q0 41 -5.5 77t-21.5 61.5t-45 41t-76 15.5q-59 0 -118.5 -29.5t-108.5 -72.5v-654q0 -51 -51 -51h-144q-53 0 -53 51z" />
<glyph unicode="n" d="M129 49v893q0 51 51 51h133q23 0 35 -8t14 -31l3 -53q72 57 156.5 88t174.5 31q172 0 248 -99.5t76 -267.5v-600q0 -27 -10.5 -40t-38.5 -13h-148q-29 0 -39 13.5t-10 39.5v557q0 84 -30.5 138.5t-125.5 54.5q-59 0 -126.5 -29t-114.5 -69v-654q0 -51 -49 -51h-150 q-49 0 -49 49z" />
<glyph unicode="o" horiz-adv-x="1126" d="M70 500q0 111 32.5 206t97 164.5t157 109.5t212.5 40q125 0 217.5 -39t151.5 -108.5t89 -165.5t30 -209q0 -111 -33 -206t-97.5 -166t-157.5 -111t-212 -40q-125 0 -217 40t-151.5 111t-89 166t-29.5 208zM326 504q0 -63 11 -122.5t37.5 -107t72 -76t112.5 -28.5 q68 0 114 27.5t74.5 73.5t41 105t12.5 122t-11.5 121.5t-38 104.5t-71.5 73.5t-113 27.5t-114.5 -27.5t-74.5 -71.5t-40 -102.5t-12 -119.5z" />
<glyph unicode="p" horiz-adv-x="1140" d="M129 -389v1335q0 47 49 47h123q27 0 40 -8t15 -31l2 -53q45 51 124 85t163 34q102 0 174 -35t123 -90q66 -72 97.5 -173t31.5 -210q0 -117 -33.5 -219.5t-99.5 -177.5q-57 -66 -136 -103t-179 -37q-72 0 -137.5 25t-110.5 72v-461q0 -31 -13.5 -42t-39.5 -11h-144 q-49 0 -49 53zM375 274q31 -41 86 -70.5t114 -29.5q53 0 95.5 21.5t68.5 54.5q39 47 56.5 110.5t17.5 139.5q0 72 -14.5 133t-44.5 104q-59 84 -168 84q-57 0 -118.5 -30.5t-92.5 -69.5v-447z" />
<glyph unicode="q" horiz-adv-x="1136" d="M70 498q0 123 37.5 230.5t113.5 178.5q119 113 293 113q68 0 143.5 -27.5t122.5 -81.5l4 50q2 32 44 32h3h127q29 0 39.5 -12t10.5 -37v-1333q0 -53 -47 -53h-150q-51 0 -51 47v475q-47 -47 -118 -76t-142 -29q-84 0 -146.5 21.5t-113.5 62.5q-88 72 -129 189t-41 250z M328 500q0 -72 15 -136.5t50 -109.5q25 -31 63 -50.5t91 -19.5q59 0 116.5 28t96.5 69v430q-35 43 -92.5 74.5t-114.5 31.5q-68 0 -111 -28.5t-68.5 -73.5t-35.5 -101.5t-10 -113.5z" />
<glyph unicode="r" horiz-adv-x="706" d="M129 51v891q0 31 14.5 41t36.5 10h131q51 0 51 -39l3 -65q47 59 104 95t143 36q23 0 41.5 -3t26.5 -11t8 -27v-8l-22 -146q-6 -35 -41 -28q-10 2 -21.5 3t-30.5 1q-53 0 -105 -25.5t-91 -73.5v-651q0 -51 -49 -51h-150q-49 0 -49 51z" />
<glyph unicode="s" horiz-adv-x="841" d="M57 94l37 113q12 37 49 20q150 -63 258 -63q68 0 110 28.5t42 79.5q0 43 -29.5 70t-93.5 51l-162 62q-88 33 -149.5 100.5t-61.5 171.5q0 76 33 131t85 91t118.5 53.5t134.5 17.5q74 0 147.5 -13.5t149.5 -48.5q20 -10 22.5 -20t-2.5 -29l-34 -110q-6 -18 -19.5 -21.5 t-29.5 2.5q-53 20 -113 34.5t-109 14.5q-66 0 -97.5 -29.5t-31.5 -64.5t20.5 -58.5t80.5 -45.5l184 -76q82 -35 138.5 -98.5t56.5 -163.5q0 -80 -33 -140.5t-87.5 -99.5t-126 -58.5t-149.5 -19.5q-80 0 -162.5 20.5t-152.5 51.5q-26 12 -26 32q0 7 3 15z" />
<glyph unicode="t" horiz-adv-x="778" d="M35 874v78q0 41 37 41h104v215q0 25 8.5 38.5t32.5 17.5l166 22h7q12 0 22 -5q12 -7 12 -32v-256h231q39 0 39 -35v-96q0 -39 -41 -39h-229v-469q0 -47 5 -80.5t22 -58.5q14 -20 36.5 -31.5t59.5 -11.5q39 0 70.5 7t60.5 18q16 4 29.5 3t17.5 -24l20 -102q1 -6 1 -12 q0 -26 -29 -39q-47 -20 -107.5 -34t-122.5 -14q-78 0 -142 20.5t-103 65.5q-25 27 -38.5 56.5t-19.5 66.5t-7 82t-1 101v456h-96q-29 0 -37 9.5t-8 41.5z" />
<glyph unicode="u" horiz-adv-x="1140" d="M129 342v604q0 47 53 47h144q25 0 38 -9t13 -38v-561q0 -86 29.5 -138t121.5 -52q59 0 125 28.5t113 69.5v653q0 47 51 47h146q25 0 38 -9t13 -38v-889q0 -33 -11.5 -45t-41.5 -12h-132q-45 0 -49 41l-2 51q-145 -117 -325 -117q-172 0 -248 100.5t-76 266.5z" />
<glyph unicode="v" horiz-adv-x="991" d="M27 950q-4 11 -4 19q0 24 36 24h181q47 0 59 -41l156 -477q16 -47 28.5 -93t22.5 -81h2q8 29 21.5 77t27.5 91l160 481q8 27 21.5 35t41.5 8h148q31 0 39 -12q4 -5 4 -13q0 -10 -6 -24l-359 -905q-10 -23 -23.5 -31t-35.5 -8h-107q-23 0 -38 7t-23 30z" />
<glyph unicode="w" horiz-adv-x="1472" d="M27 950q-2 8 -2 15q0 28 41 28h167q29 0 41.5 -10t16.5 -29l147 -647h2l191 645q10 41 55 41h115q47 0 55 -35l186 -655h2l154 645q4 23 17.5 34t41.5 11h156q34 0 34 -25q0 -8 -3 -18l-275 -901q-8 -23 -21 -36t-42 -13h-135q-31 0 -45.5 13.5t-22.5 37.5l-170 584h-4 l-168 -588q-14 -47 -65 -47h-138q-25 0 -41 13.5t-22 35.5z" />
<glyph unicode="x" horiz-adv-x="1032" d="M23 14q-1 4 -1 9q0 11 9 22l352 469l-301 430q-10 16 -6 32.5t26 16.5h209q41 0 64 -32l162 -259h2l168 256q14 20 26 27.5t33 7.5h178q23 0 27 -14t-6 -31l-312 -405l346 -494q8 -11 8 -22q0 -5 -2 -11q-6 -16 -30 -16h-209q-31 0 -46 9t-26 28l-192 313h-2l-197 -309 q-14 -23 -31.5 -32t-46.5 -9h-174q-23 0 -28 14z" />
<glyph unicode="y" horiz-adv-x="1052" d="M28 -416q-1 6 -1 14t2 19l14 107q6 37 37 36q16 0 39.5 -3t42.5 -3q96 0 143 35t78 107l39 92l-373 960q-8 18 -2 31.5t29 13.5h192q27 0 39 -10t19 -31l225 -671l215 665q14 47 61 47h166q35 0 35 -25q0 -10 -6 -24l-404 -1061q-35 -92 -74.5 -154.5t-93 -101.5 t-123 -56t-161.5 -17q-29 0 -57.5 2t-51.5 8q-25 8 -29 20z" />
<glyph unicode="z" horiz-adv-x="880" d="M49 49v51q0 23 3 36.5t18 33.5l442 651v2h-379q-29 0 -38 10.5t-9 43.5v73q0 43 39 43h647q29 0 38 -13t9 -30v-57q0 -18 -4 -34.5t-16 -33.5l-451 -651v-4h443q41 0 40 -35v-96q0 -39 -38 -39h-695q-29 0 -39 13.5t-10 35.5z" />
<glyph unicode="{" horiz-adv-x="733" d="M53 539v86q0 16 5 23t34 11q127 14 129 211l6 291q4 145 87 221t212 76h150q27 0 33 -10t2 -27l-19 -86q-4 -18 -13 -24t-32 -6h-45q-72 0 -97.5 -34t-27.5 -120l-6 -264q-2 -82 -23.5 -139.5t-53.5 -92t-68.5 -52t-69.5 -19.5v-4q33 -2 69.5 -19.5t68.5 -52.5 t53.5 -92.5t23.5 -139.5l6 -262q2 -86 27.5 -119.5t97.5 -33.5h45q23 0 32 -6.5t13 -24.5l19 -86q4 -16 -2.5 -26.5t-32.5 -10.5h-150q-129 0 -212 76t-87 221l-6 289q-2 197 -129 211q-29 4 -34 11t-5 24z" />
<glyph unicode="|" horiz-adv-x="471" d="M123 2v1417q0 45 41 45h135q49 0 49 -43v-1417q0 -29 -8 -39t-39 -10h-121q-29 0 -43 9t-14 38z" />
<glyph unicode="}" horiz-adv-x="733" d="M23 -256l18 86q4 18 13 24.5t32 6.5h45q72 0 97.5 33.5t27.5 119.5l6 262q2 82 23.5 139.5t53.5 92.5t68.5 52.5t69.5 19.5v4q-33 2 -69.5 19.5t-68.5 52t-53.5 92t-23.5 139.5l-6 264q-2 86 -27.5 120t-97.5 34h-45q-23 0 -32 6t-13 24l-18 86q-4 16 2 26.5t32 10.5h150 q129 0 212 -75.5t87 -221.5l6 -291q2 -197 129 -211q29 -4 34 -11t5 -23v-86q0 -16 -5 -23.5t-34 -11.5q-127 -14 -129 -211l-6 -289q-4 -145 -87 -221t-212 -76h-150q-27 0 -33 10.5t-1 26.5z" />
<glyph unicode="~" horiz-adv-x="1071" d="M64 599.5q2 21.5 32 43.5q80 55 150.5 91t136.5 36q45 0 87 -17.5t82 -38t79 -38t76 -17.5q41 0 85 18.5t89 49.5q41 29 69 -18l37 -58q20 -31 18.5 -52t-32.5 -44q-76 -55 -148.5 -91t-138.5 -36q-45 0 -87 17.5t-82 38t-79 38t-76 17.5q-41 0 -85 -19.5t-89 -48.5 q-43 -25 -69 18l-37 58q-20 31 -18 52.5z" />
<glyph unicode="&#xa1;" horiz-adv-x="530" d="M111 864q0 12 20 33l102 102q21 21 31 21t31 -21l102 -102q20 -20 21 -33q0 -6 -4 -13t-17 -20l-102 -102q-20 -20 -31 -20q-10 0 -31 20l-102 102q-12 12 -16 19.5t-4 13.5zM152 -383l20 973q0 23 8 32t33 9h115q39 0 39 -39l22 -975q0 -23 -7 -31t-30 -8h-164 q-23 0 -29.5 8t-6.5 31z" />
<glyph unicode="&#xa2;" d="M168 487q0 223 119 364.5t327 164.5v153q0 23 6.5 30t28.5 7h53q25 0 31 -7t6 -30v-151q55 -4 113.5 -18.5t108.5 -36.5q20 -10 23 -21.5t-1 -32.5l-27 -108q-8 -41 -51 -21q-35 16 -77 26.5t-89 14.5v-651q47 4 90 15.5t86 27.5q18 6 28.5 3t17.5 -21l28 -93 q10 -29 6 -41t-30 -24q-111 -51 -226 -57v-144q0 -23 -7 -32t-36 -9h-43q-27 0 -33 10.5t-6 34.5v137q-211 16 -328.5 151.5t-117.5 358.5zM424 500q0 -129 48 -213t142 -109v635q-86 -23 -138 -100.5t-52 -212.5z" />
<glyph unicode="&#xa3;" d="M90 51v86q0 45 39 60q78 31 109.5 91t31.5 152v191h-98q-25 0 -33 7t-8 30v110q0 27 9.5 32t33.5 5h96v162q0 113 28 194.5t83 143.5q55 61 141 95t197 34q145 0 278 -55q45 -18 31 -60l-37 -110q-10 -35 -49 -21q-45 16 -93 27.5t-101 11.5q-119 0 -175 -66 q-25 -31 -38 -74.5t-13 -125.5v-156h295q27 0 35 -7t8 -28v-114q0 -25 -9 -30t-34 -5h-297v-174q0 -82 -22.5 -142.5t-75.5 -97.5v-4h582q51 0 51 -47v-117q0 -49 -49 -49h-865q-51 0 -51 51z" />
<glyph unicode="&#xa4;" d="M51 539v57q0 20 7.5 26.5t25.5 6.5h102q-2 18 -2 41.5v50.5h-100q-18 0 -25.5 6t-7.5 27v57q0 20 7.5 26.5t25.5 6.5h111q8 133 52 243.5t119.5 189.5t180 123t231.5 44q86 0 171 -22.5t153 -59.5q37 -20 18 -59l-55 -121q-16 -31 -47 -17q-57 29 -109.5 43.5 t-113.5 14.5q-78 0 -134.5 -29t-94.5 -79t-60.5 -119.5t-28.5 -151.5h381q39 0 31 -37l-12 -53q-4 -23 -12.5 -28t-30.5 -5h-361v-51.5t2 -40.5h344q39 0 31 -37l-12 -53q-4 -23 -12.5 -28t-30.5 -5h-312q23 -135 102 -222t214 -87q57 0 109.5 13t109.5 42q31 14 47 -16 l55 -119q18 -39 -18 -60q-68 -37 -151 -59.5t-173 -22.5q-127 0 -228 38t-174 107.5t-117 167t-58 218.5h-117q-18 0 -25.5 6t-7.5 27z" />
<glyph unicode="&#xa5;" d="M41 1402.5q8 14.5 31 14.5h190q33 0 48.5 -8t25.5 -31l268 -536h2l262 534q12 25 26.5 33t43.5 8h154q25 0 34 -12t-6 -39l-368 -711h157q27 0 34 -8t7 -29v-57q0 -23 -9 -29t-34 -6h-186v-88h192q27 0 33 -7t6 -30v-45q0 -29 -7 -36t-34 -7h-190v-266q0 -47 -43 -47 h-174q-45 0 -45 51v262h-193q-25 0 -32 10.5t-7 34.5v41q0 25 7.5 32t33.5 7h97h94v88h-197q-23 0 -30 7.5t-7 29.5v53q0 25 8.5 32t32.5 7h156l-379 713q-10 20 -2 34.5z" />
<glyph unicode="&#xa6;" horiz-adv-x="471" d="M123 20v474q0 49 51 49h125q27 0 38 -9.5t11 -37.5v-476q0 -51 -49 -51h-123q-53 0 -53 51zM123 932v471q0 49 51 49h125q27 0 38 -9t11 -38v-473q0 -53 -49 -53h-123q-53 0 -53 53z" />
<glyph unicode="&#xa7;" horiz-adv-x="948" d="M109 74q0 10 4 22l32 103q8 31 27 30q6 0 23 -6q66 -27 136 -43t124 -16q66 0 108.5 28.5t42.5 79.5q0 43 -29.5 70t-93.5 51l-161 64q-88 35 -149.5 101.5t-61.5 170.5q0 72 30.5 125t79.5 88q-47 39 -74.5 91t-27.5 120q0 76 32.5 130t85 90t119 53.5t133.5 17.5 q78 0 151 -13.5t144 -44.5q10 -4 17.5 -9t7.5 -15q0 -6 -4 -23l-35 -114q-6 -23 -25 -23q-8 0 -28 8q-51 20 -108.5 32.5t-104.5 12.5q-66 0 -99.5 -29.5t-33.5 -64.5q0 -33 20.5 -59.5t79.5 -48.5l184 -74q82 -33 138.5 -97.5t56.5 -164.5q0 -72 -25.5 -128.5t-72.5 -94.5 q41 -35 65.5 -85.5t24.5 -115.5q0 -80 -32 -139.5t-86 -99.5t-126 -59.5t-149 -19.5q-76 0 -160 18.5t-156 49.5q-25 10 -24 31zM350 750q0 -72 113 -119l98 -41q29 16 47.5 42.5t18.5 57.5q0 43 -36 74t-99 53l-72 27q-70 -29 -70 -94z" />
<glyph unicode="&#xa8;" horiz-adv-x="704" d="M57 1229v135q0 27 7.5 33t31.5 6h137q25 0 32 -6t7 -33v-135q0 -27 -7 -33t-32 -6h-137q-25 0 -32 6t-7 33zM432 1229v135q0 27 7 33t32 6h137q25 0 32 -6t7 -33v-135q0 -27 -7 -33t-32 -6h-137q-25 0 -32 6t-7 33z" />
<glyph unicode="&#xa9;" horiz-adv-x="1701" d="M109 713q0 154 57 287t157.5 231t235.5 155.5t293 57.5q154 0 289 -57.5t236.5 -155.5t159.5 -231t58 -287t-58 -288t-159.5 -233.5t-236.5 -158t-289 -58.5q-160 0 -295 58.5t-235.5 158t-156.5 233.5t-56 288zM293 711q0 -119 43 -222.5t117.5 -180.5t177 -121 t221.5 -44t221.5 44t177 121t116.5 180.5t42 222.5t-42 222t-116.5 179t-177 120t-221.5 44t-221.5 -44t-177 -120t-117.5 -179.5t-43 -221.5zM543 709q0 80 23.5 147.5t66.5 118.5t105.5 79.5t140.5 28.5q53 0 101 -11t93 -34q20 -10 21 -20q0 -4 -4 -17l-23 -63 q-6 -16 -14.5 -18t-20.5 4q-39 20 -74.5 28.5t-72.5 8.5q-88 0 -140 -68q-27 -35 -39 -81t-12 -99q0 -117 51.5 -185.5t143.5 -68.5q70 0 145 33q25 10 35 -11l23 -61q4 -13 4 -17q0 -16 -21 -24q-96 -41 -207 -41q-84 0 -144 27.5t-101 78t-60.5 118t-19.5 147.5z" />
<glyph unicode="&#xaa;" horiz-adv-x="626" d="M41 854q0 104 86 143t246 39v8q0 35 -18.5 57.5t-65.5 22.5q-35 0 -70 -11t-69 -28q-31 -16 -46 13l-28 57q-6 14 -6 23.5t14 17.5q47 29 107.5 46.5t121.5 17.5q70 0 115 -14.5t74 -43.5q55 -53 55 -168v-301q0 -20 -8 -28.5t-31 -8.5h-80q-23 0 -33 5.5t-14 19.5l-8 24 q-35 -29 -78 -43t-88 -14q-86 0 -131 50t-45 116zM227 868q0 -49 62 -49q47 0 84 31v90q-70 2 -108 -16.5t-38 -55.5z" />
<glyph unicode="&#xab;" horiz-adv-x="942" d="M74 471q0 10 4 17.5t10 17.5l227 289q16 20 29.5 22t30.5 -8l74 -43q18 -10 22 -20.5t-6 -26.5l-166 -248l166 -248q10 -16 6 -26.5t-22 -20.5l-74 -43q-16 -10 -29.5 -8t-30.5 22l-227 289q-14 20 -14 35zM449 471q0 10 4 17.5t10 17.5l227 289q16 20 29.5 22t30.5 -8 l73 -43q18 -10 22.5 -20.5t-5.5 -26.5l-166 -248l166 -248q10 -16 6 -26.5t-23 -20.5l-73 -43q-16 -10 -29.5 -8t-30.5 22l-227 289q-14 20 -14 35z" />
<glyph unicode="&#xac;" horiz-adv-x="1071" d="M78 688v115q0 27 9 38t38 11h815q31 0 42 -11.5t11 -39.5v-508q0 -29 -13 -39t-38 -10h-115q-27 0 -38 9t-11 38v346h-651q-29 0 -39 13.5t-10 37.5z" />
<glyph unicode="&#xad;" horiz-adv-x="587" d="M72 475v133q0 27 9 38t38 11h344q31 0 42 -11t11 -40v-129q0 -29 -11 -42t-40 -13h-344q-29 0 -39 14.5t-10 38.5z" />
<glyph unicode="&#xae;" horiz-adv-x="1701" d="M109 713q0 154 57 287t157.5 231t235.5 155.5t293 57.5q154 0 289 -57.5t236.5 -155.5t159.5 -231t58 -287t-58 -288t-159.5 -233.5t-236.5 -158t-289 -58.5q-160 0 -295 58.5t-235.5 158t-156.5 233.5t-56 288zM293 711q0 -119 43 -222.5t117.5 -180.5t177 -121 t221.5 -44t221.5 44t177 121t116.5 180.5t42 222.5t-42 222t-116.5 179t-177 120t-221.5 44t-221.5 -44t-177 -120t-117.5 -179.5t-43 -221.5zM629 379v657q0 35 28 35h91q55 0 95 -1t72.5 -7t60.5 -17.5t56 -31.5q74 -55 74 -168q0 -72 -34 -125t-95 -82l166 -254 q25 -35 -15 -35h-98q-27 0 -41 23l-145 237h-72v-231q0 -29 -29 -29h-86q-29 0 -28 29zM772 721h41q72 0 110 27.5t38 93.5q0 63 -38 89.5t-104 26.5h-47v-237z" />
<glyph unicode="&#xaf;" horiz-adv-x="704" d="M63 1249v78q0 23 9.5 31t31.5 8h494q23 0 32 -8t9 -31v-78q0 -23 -9 -31t-32 -8h-494q-23 0 -32 8.5t-9 30.5z" />
<glyph unicode="&#xb0;" horiz-adv-x="577" d="M92 1253q0 80 54.5 135.5t142.5 55.5t142 -55.5t54 -135.5t-54 -135t-142 -55t-142.5 55.5t-54.5 134.5zM217 1253q0 -31 20.5 -51t51.5 -20t51 20t20 51t-20.5 51.5t-50.5 20.5q-31 0 -51.5 -20.5t-20.5 -51.5z" />
<glyph unicode="&#xb1;" horiz-adv-x="1071" d="M78 51v115q0 27 9 38t38 11h815q31 0 42 -11t11 -40v-109q0 -29 -11 -42t-40 -13h-815q-29 0 -39 13.5t-10 37.5zM78 770v115q0 27 9 38t38 11h303v297q0 31 11.5 42t39.5 11h109q29 0 42 -11t13 -40v-299h297q31 0 42 -11.5t11 -39.5v-109q0 -29 -11 -42t-40 -13h-299 v-301q0 -29 -13.5 -39t-37.5 -10h-115q-27 0 -38 9t-11 38v303h-301q-29 0 -39 13t-10 38z" />
<glyph unicode="&#xb2;" horiz-adv-x="696" d="M88 950v33q0 14 2 25.5t7 20.5t13.5 18.5t22.5 23.5q74 70 125 121t83 90t46 70.5t14 62.5q0 74 -90 74q-33 0 -68.5 -11.5t-72.5 -29.5q-31 -16 -45 14l-29 66q-16 37 10 51q45 27 109 45t129 18q111 0 183.5 -55t72.5 -153q0 -41 -12.5 -80t-43 -82t-79.5 -93.5 t-123 -109.5h219q23 0 30 -7t7 -28v-88q0 -16 -6 -24.5t-29 -8.5h-440q-18 0 -26.5 7.5t-8.5 29.5z" />
<glyph unicode="&#xb3;" horiz-adv-x="696" d="M78 1006l26 71q14 37 50 23q88 -39 153 -39q49 0 81 20.5t32 63.5t-37 61.5t-111 18.5h-30q-18 0 -23.5 6t-5.5 22v74q0 29 29 29h41q47 0 77.5 14t30.5 55q0 33 -25.5 48.5t-62.5 15.5q-31 0 -65.5 -8t-69.5 -23q-18 -8 -27.5 -4t-15.5 19l-27 67q-6 18 -4 29.5t23 21.5 q49 27 105.5 39t113.5 12q106 0 178 -49t72 -141q0 -106 -101 -152q57 -18 95 -59t38 -108q0 -98 -78.5 -163t-209.5 -65q-137 0 -234 53q-29 16 -18 48z" />
<glyph unicode="&#xb4;" horiz-adv-x="704" d="M119 1230q2 13 24 30l281 198q25 18 40 16.5t32 -24.5l61 -92q25 -37 -12 -58l-312 -172q-23 -12 -36 -10t-29 25l-35 51q-16 23 -14 36z" />
<glyph unicode="&#xb5;" horiz-adv-x="1204" d="M129 -307v1249q0 51 51 51h144q53 0 53 -51v-569q0 -41 6 -76t23.5 -61.5t47 -41t76.5 -14.5q59 0 124 25.5t112 66.5v670q0 51 51 51h144q53 0 53 -51v-649q0 -98 47 -98q12 0 25.5 4t23.5 8q16 8 31.5 4t19.5 -21l31 -88q6 -16 3 -31.5t-19 -25.5q-37 -29 -97.5 -45 t-111.5 -16q-59 0 -106.5 24.5t-65.5 67.5q-47 -43 -114 -72t-144 -29q-100 0 -160 48v-330q0 -51 -51 -51h-144q-53 0 -53 51z" />
<glyph unicode="&#xb6;" horiz-adv-x="1095" d="M70 1063q0 76 29.5 140.5t79.5 111.5t116.5 74.5t140.5 27.5h465q29 0 40 -11t11 -40v-1612q0 -20 -7 -31.5t-30 -11.5h-75q-39 0 -39 45v1456h-164v-1448q0 -53 -47 -53h-152q-25 0 -36 10.5t-11 40.5v951q-68 8 -126 38.5t-102 76.5t-68.5 106.5t-24.5 128.5z" />
<glyph unicode="&#xb7;" horiz-adv-x="471" d="M113 485v158q0 29 8 37t37 8h155q29 0 37 -8t8 -37v-158q0 -29 -8 -37t-37 -8h-155q-29 0 -37 8.5t-8 36.5z" />
<glyph unicode="&#xb8;" horiz-adv-x="704" d="M195 -375l14 66q4 10 11 15t32 -3t54.5 -13t47.5 -5q35 0 59.5 13t24.5 40q0 25 -17.5 39t-82.5 14h-29q-53 0 -64.5 14.5t-6.5 49.5l16 145h131l-6 -90h16q100 0 155.5 -44t55.5 -130q0 -78 -64.5 -128t-170.5 -50q-80 0 -150 28q-33 12 -26 39z" />
<glyph unicode="&#xb9;" horiz-adv-x="696" d="M78 1476.5q2 12.5 22 22.5l219 117q23 10 36.5 14t39.5 4h70q37 0 37 -32v-650q0 -20 -8.5 -29.5t-36.5 -9.5h-101q-29 0 -37 9.5t-8 29.5v480l-127 -66q-23 -10 -35 -8t-22 20l-41 70q-10 16 -8 28.5z" />
<glyph unicode="&#xba;" horiz-adv-x="651" d="M35 973q0 129 72.5 208t218.5 79q145 0 217.5 -79t72.5 -208t-72.5 -207t-217.5 -78t-218 78t-73 207zM225 973q0 -66 23.5 -108t77.5 -42q53 0 76.5 42t23.5 108t-23.5 108.5t-76.5 42.5t-77 -43t-24 -108z" />
<glyph unicode="&#xbb;" horiz-adv-x="942" d="M96 745.5q4 10.5 23 20.5l74 43q16 10 29.5 8t29.5 -22l227 -289l10.5 -17.5t4.5 -17.5q0 -14 -15 -35l-227 -289q-16 -20 -29.5 -22t-29.5 8l-74 43q-18 10 -22.5 20.5t5.5 26.5l166 248l-166 248q-10 16 -6 26.5zM471 745.5q4 10.5 23 20.5l73 43q16 10 29.5 8 t30.5 -22l227 -289q6 -10 10 -17.5t4 -17.5q0 -14 -14 -35l-227 -289q-16 -20 -29.5 -22t-30.5 8l-73 43q-18 10 -22.5 20.5t5.5 26.5l166 248l-166 248q-10 16 -6 26.5z" />
<glyph unicode="&#xbc;" horiz-adv-x="1728" d="M103 1259.5q2 12.5 22 22.5l219 117q23 10 36.5 14t39.5 4h70q37 0 37 -33v-649q0 -20 -8.5 -29.5t-36.5 -9.5h-101q-29 0 -37 9.5t-8 29.5v479l-127 -65q-23 -10 -35 -8t-22 20l-41 70q-10 16 -8 28.5zM303 -12.5q-10 12.5 4 35.5l858 1382q14 23 27.5 31t42.5 8h125 q29 0 39 -12.5t-4 -34.5l-858 -1383q-14 -23 -27.5 -31t-42.5 -8h-125q-29 0 -39 12.5zM1011 168v39q0 53 29 117l160 366q8 16 17 23.5t32 7.5h115q45 0 28 -41l-166 -395h162v123q0 18 7 26t34 8h107q27 0 33.5 -8t6.5 -26v-373q0 -18 -7 -26.5t-33 -8.5h-107q-27 0 -34 8 t-7 27v94h-340q-37 0 -37 39z" />
<glyph unicode="&#xbd;" horiz-adv-x="1728" d="M103 1259.5q2 12.5 22 22.5l219 117q23 10 36.5 14t39.5 4h70q37 0 37 -33v-649q0 -20 -8.5 -29.5t-36.5 -9.5h-101q-29 0 -37 9.5t-8 29.5v479l-127 -65q-23 -10 -35 -8t-22 20l-41 70q-10 16 -8 28.5zM303 -12.5q-10 12.5 4 35.5l858 1382q14 23 27.5 31t42.5 8h125 q29 0 39 -12.5t-4 -34.5l-858 -1383q-14 -23 -27.5 -31t-42.5 -8h-125q-29 0 -39 12.5zM1065 37v33q0 14 2 25t7 20.5t13.5 18.5t22.5 24q74 70 125 121t83 90t46 70.5t14 62.5q0 74 -90 73q-33 0 -68.5 -11t-72.5 -29q-31 -16 -45 14l-29 65q-16 37 10 52q45 27 109 45 t129 18q111 0 183.5 -55.5t72.5 -153.5q0 -41 -12.5 -80t-43 -82t-79.5 -93t-123 -109h219q23 0 30 -7.5t7 -27.5v-88q0 -16 -6 -24.5t-29 -8.5h-440q-18 0 -26.5 7t-8.5 30z" />
<glyph unicode="&#xbe;" horiz-adv-x="1728" d="M111 788l26 72q14 37 50 23q88 -39 153 -39q49 0 81 20.5t32 63.5t-37 61.5t-111 18.5h-30q-18 0 -23.5 6t-5.5 22v74q0 29 29 29h41q47 0 77.5 14t30.5 55q0 33 -25.5 48.5t-62.5 15.5q-31 0 -65.5 -8.5t-69.5 -22.5q-18 -8 -27.5 -4t-15.5 18l-27 68q-6 18 -4 29.5 t23 21.5q49 27 105.5 39t113.5 12q106 0 178 -49t72 -141q0 -106 -101 -152q57 -18 95 -59t38 -109q0 -98 -78.5 -162.5t-209.5 -64.5q-137 0 -234 53q-29 16 -18 47zM340 -12.5q-10 12.5 4 35.5l858 1382q14 23 27.5 31t42.5 8h125q29 0 39 -12.5t-4 -34.5l-858 -1383 q-14 -23 -27.5 -31t-42.5 -8h-125q-29 0 -39 12.5zM1048 168v39q0 53 29 117l160 366q8 16 17 23.5t32 7.5h115q45 0 28 -41l-166 -395h162v123q0 18 7 26t34 8h107q27 0 33.5 -8t6.5 -26v-373q0 -18 -7 -26.5t-33 -8.5h-107q-27 0 -34 8t-7 27v94h-340q-37 0 -37 39z" />
<glyph unicode="&#xbf;" horiz-adv-x="901" d="M74 -102q0 84 38 157.5t97 134.5l149 158q37 39 60.5 79t27.5 114v59q0 31 31 31h133q16 0 25.5 -6.5t13.5 -24.5q6 -29 8 -51.5t2 -50.5q0 -72 -25.5 -129.5t-78.5 -110.5l-145 -149q-31 -33 -66 -82.5t-35 -104.5q0 -49 17.5 -83t45 -53t63.5 -28.5t73 -9.5 q47 0 106.5 16.5t106.5 42.5q20 10 29.5 5t13.5 -17l41 -110q4 -14 3 -25.5t-17 -21.5q-78 -43 -164 -65t-168 -22q-78 0 -147.5 24t-122 68t-84 108.5t-31.5 146.5zM385 864q0 12 21 33l102 102q21 21 31 21t30 -21l103 -102q12 -12 16 -19.5t4 -13.5t-4 -13t-16 -20 l-103 -102q-20 -20 -30 -20t-31 20l-102 102q-12 12 -16.5 19.5t-4.5 13.5z" />
<glyph unicode="&#xc0;" horiz-adv-x="1316" d="M17 14.5q-7 14.5 1 36.5l500 1325q8 18 20.5 29.5t34.5 11.5h164q43 0 58 -37l503 -1327q8 -23 0 -38t-30 -15h-187q-33 0 -46 12.5t-23 36.5l-107 301h-518l-106 -307q-6 -20 -18.5 -31.5t-37.5 -11.5h-176q-25 0 -32 14.5zM436 1767l62 93q16 23 31.5 24.5t39.5 -16.5 l281 -199q23 -16 24.5 -29.5t-14.5 -35.5l-35 -52q-16 -23 -29.5 -24.5t-35.5 10.5l-312 172q-37 20 -12 57zM457 549h379l-146 432q-14 43 -23.5 76t-17.5 57h-4q-16 -53 -43 -135z" />
<glyph unicode="&#xc1;" horiz-adv-x="1316" d="M17 14.5q-7 14.5 1 36.5l500 1325q8 18 20.5 29.5t34.5 11.5h164q43 0 58 -37l503 -1327q8 -23 0 -38t-30 -15h-187q-33 0 -46 12.5t-23 36.5l-107 301h-518l-106 -307q-6 -20 -18.5 -31.5t-37.5 -11.5h-176q-25 0 -32 14.5zM424 1640q2 13 24 29l281 199q25 18 40 16 t32 -24l61 -93q25 -37 -12 -57l-312 -172q-23 -12 -36 -10t-29 24l-35 52q-16 23 -14 36zM457 549h379l-146 432q-14 43 -23.5 76t-17.5 57h-4q-16 -53 -43 -135z" />
<glyph unicode="&#xc2;" horiz-adv-x="1316" d="M17 14.5q-7 14.5 1 36.5l500 1325q8 18 20.5 29.5t34.5 11.5h164q43 0 58 -37l503 -1327q8 -23 0 -38t-30 -15h-187q-33 0 -46 12.5t-23 36.5l-107 301h-518l-106 -307q-6 -20 -18.5 -31.5t-37.5 -11.5h-176q-25 0 -32 14.5zM371 1591q-25 25 4 54l204 186q14 12 25.5 17 t34.5 5h33q23 0 34 -5t25 -17l205 -186q29 -29 4 -54l-35 -37q-16 -16 -29.5 -16t-42.5 18l-178 117l-178 -117q-29 -18 -42 -18t-30 16zM457 549h379l-146 432q-14 43 -23.5 76t-17.5 57h-4q-16 -53 -43 -135z" />
<glyph unicode="&#xc3;" horiz-adv-x="1316" d="M17 14.5q-7 14.5 1 36.5l500 1325q8 18 20.5 29.5t34.5 11.5h164q43 0 58 -37l503 -1327q8 -23 0 -38t-30 -15h-187q-33 0 -46 12.5t-23 36.5l-107 301h-518l-106 -307q-6 -20 -18.5 -31.5t-37.5 -11.5h-176q-25 0 -32 14.5zM323 1677q-18 35 21 60q41 29 90 48t96 19 q37 0 71 -11t63.5 -24.5t57 -24.5t52.5 -11q29 0 58.5 10t64.5 33q23 14 35 12t22 -21l33 -65q18 -35 -20 -60q-41 -29 -90.5 -48t-96.5 -19q-37 0 -70.5 11t-63.5 24.5t-57.5 25t-52.5 11.5q-53 0 -122 -43q-23 -14 -35.5 -12.5t-22.5 20.5zM457 549h379l-146 432 q-14 43 -23.5 76t-17.5 57h-4q-16 -53 -43 -135z" />
<glyph unicode="&#xc4;" horiz-adv-x="1316" d="M17 14.5q-7 14.5 1 36.5l500 1325q8 18 20.5 29.5t34.5 11.5h164q43 0 58 -37l503 -1327q8 -23 0 -38t-30 -15h-187q-33 0 -46 12.5t-23 36.5l-107 301h-518l-106 -307q-6 -20 -18.5 -31.5t-37.5 -11.5h-176q-25 0 -32 14.5zM362 1638v136q0 27 7.5 32.5t31.5 5.5h137 q25 0 32 -6t7 -32v-136q0 -27 -7 -33t-32 -6h-137q-25 0 -32 6.5t-7 32.5zM457 549h379l-146 432q-14 43 -23.5 76t-17.5 57h-4q-16 -53 -43 -135zM737 1638v136q0 27 7 32.5t32 5.5h137q25 0 32 -6t7 -32v-136q0 -27 -7 -33t-32 -6h-137q-25 0 -32 6.5t-7 32.5z" />
<glyph unicode="&#xc5;" horiz-adv-x="1316" d="M17 14.5q-7 14.5 1 36.5l500 1325q8 18 20.5 29.5t34.5 11.5h164q43 0 58 -37l503 -1327q8 -23 0 -38t-30 -15h-187q-33 0 -46 12.5t-23 36.5l-107 301h-518l-106 -307q-6 -20 -18.5 -31.5t-37.5 -11.5h-176q-25 0 -32 14.5zM457 549h379l-146 432q-14 43 -23.5 76 t-17.5 57h-4q-16 -53 -43 -135zM491 1690q0 72 48.5 117.5t119.5 45.5q72 0 120 -46t48 -117q0 -72 -48 -118t-120 -46t-120 46t-48 118zM606 1690q0 -23 14 -39.5t39 -16.5t39.5 16.5t14.5 39.5t-14.5 39t-39.5 16t-39 -16.5t-14 -38.5z" />
<glyph unicode="&#xc6;" horiz-adv-x="1892" d="M29.5 14.5q-9.5 14.5 3.5 34.5l817 1323q12 20 26.5 32.5t38.5 12.5h844q51 0 45 -43l-16 -127q-4 -29 -19.5 -36t-48.5 -7h-516v-370h473q53 0 54 -46v-116q0 -49 -52 -49h-475v-328q0 -47 16.5 -64.5t63.5 -17.5h469q51 0 51 -47v-117q0 -49 -49 -49h-588 q-119 0 -172 53t-53 172v125h-457l-190 -307q-14 -23 -26.5 -33t-35.5 -10h-178q-16 0 -25.5 14.5zM596 549h346v575z" />
<glyph unicode="&#xc7;" horiz-adv-x="1220" d="M90 702q0 158 46 293t132 235.5t209 157t277 56.5q209 0 385 -86q25 -12 31 -23.5t-5 -38.5l-47 -129q-12 -39 -51 -18q-78 41 -148.5 57.5t-148.5 16.5q-106 0 -181 -45t-123 -117t-69.5 -164t-21.5 -184q0 -119 26.5 -214.5t77.5 -163t126 -103t169 -35.5q147 0 295 65 q20 10 32.5 7t22.5 -25l45 -121q16 -43 -28 -64q-98 -41 -188.5 -60t-194.5 -24l-4 -65h16q100 0 155.5 -44t55.5 -130q0 -78 -64.5 -128t-171.5 -50q-80 0 -149 28q-33 12 -27 39l15 66q4 10 11 15t32 -3t54.5 -13t47.5 -5q35 0 59.5 13t24.5 40q0 25 -17.5 39t-82.5 14 h-29q-53 0 -64.5 14.5t-7.5 49.5l15 129q-135 16 -235.5 76.5t-168 154.5t-100.5 218t-33 269z" />
<glyph unicode="&#xc8;" horiz-adv-x="1101" d="M150 225v1141q0 51 47 51h772q31 0 39 -12t4 -35l-15 -123q-4 -29 -20 -36t-49 -7h-514v-370h475q29 0 39 -11.5t10 -34.5v-120q0 -23 -10 -34t-39 -11h-475v-328q0 -47 16 -64.5t64 -17.5h469q51 0 51 -47v-117q0 -49 -49 -49h-590q-119 0 -172 53t-53 172zM391 1767 l62 93q16 23 31.5 24.5t39.5 -16.5l281 -199q23 -16 24.5 -29.5t-14.5 -35.5l-35 -52q-16 -23 -29.5 -24.5t-35.5 10.5l-312 172q-37 20 -12 57z" />
<glyph unicode="&#xc9;" horiz-adv-x="1101" d="M150 225v1141q0 51 47 51h772q31 0 39 -12t4 -35l-15 -123q-4 -29 -20 -36t-49 -7h-514v-370h475q29 0 39 -11.5t10 -34.5v-120q0 -23 -10 -34t-39 -11h-475v-328q0 -47 16 -64.5t64 -17.5h469q51 0 51 -47v-117q0 -49 -49 -49h-590q-119 0 -172 53t-53 172zM379 1640 q2 13 24 29l281 199q25 18 40 16t32 -24l61 -93q25 -37 -12 -57l-312 -172q-23 -12 -36 -10t-29 24l-35 52q-16 23 -14 36z" />
<glyph unicode="&#xca;" horiz-adv-x="1101" d="M150 225v1141q0 51 47 51h772q31 0 39 -12t4 -35l-15 -123q-4 -29 -20 -36t-49 -7h-514v-370h475q29 0 39 -11.5t10 -34.5v-120q0 -23 -10 -34t-39 -11h-475v-328q0 -47 16 -64.5t64 -17.5h469q51 0 51 -47v-117q0 -49 -49 -49h-590q-119 0 -172 53t-53 172zM306 1591 q-25 25 4 54l204 186q14 12 25.5 17t34.5 5h33q23 0 34 -5t25 -17l205 -186q29 -29 4 -54l-35 -37q-16 -16 -29.5 -16t-42.5 18l-178 117l-178 -117q-29 -18 -42 -18t-30 16z" />
<glyph unicode="&#xcb;" horiz-adv-x="1101" d="M150 225v1141q0 51 47 51h772q31 0 39 -12t4 -35l-15 -123q-4 -29 -20 -36t-49 -7h-514v-370h475q29 0 39 -11.5t10 -34.5v-120q0 -23 -10 -34t-39 -11h-475v-328q0 -47 16 -64.5t64 -17.5h469q51 0 51 -47v-117q0 -49 -49 -49h-590q-119 0 -172 53t-53 172zM297 1638 v136q0 27 7.5 32.5t31.5 5.5h137q25 0 32 -6t7 -32v-136q0 -27 -7 -33t-32 -6h-137q-25 0 -32 6.5t-7 32.5zM672 1638v136q0 27 7 32.5t32 5.5h137q25 0 32 -6t7 -32v-136q0 -27 -7 -33t-32 -6h-137q-25 0 -32 6.5t-7 32.5z" />
<glyph unicode="&#xcc;" horiz-adv-x="823" d="M119 1286v90q0 16 9 28.5t28 12.5h501q23 0 33 -11t10 -28v-90q0 -25 -10 -34t-33 -9h-116v-1073h112q23 0 33 -12.5t10 -30.5v-88q0 -41 -37 -41h-491q-41 0 -41 39v92q0 41 41 41h111v1073h-119q-41 0 -41 41zM190 1767l62 93q16 23 31.5 24.5t39.5 -16.5l281 -199 q23 -16 24.5 -29.5t-14.5 -35.5l-35 -52q-16 -23 -29.5 -24.5t-35.5 10.5l-312 172q-37 20 -12 57z" />
<glyph unicode="&#xcd;" horiz-adv-x="823" d="M119 1286v90q0 16 9 28.5t28 12.5h501q23 0 33 -11t10 -28v-90q0 -25 -10 -34t-33 -9h-116v-1073h112q23 0 33 -12.5t10 -30.5v-88q0 -41 -37 -41h-491q-41 0 -41 39v92q0 41 41 41h111v1073h-119q-41 0 -41 41zM178 1640q2 13 24 29l281 199q25 18 40 16t32 -24l61 -93 q25 -37 -12 -57l-312 -172q-23 -12 -36 -10t-29 24l-35 52q-16 23 -14 36z" />
<glyph unicode="&#xce;" horiz-adv-x="823" d="M119 1286v90q0 16 9 28.5t28 12.5h501q23 0 33 -11t10 -28v-90q0 -25 -10 -34t-33 -9h-116v-1073h112q23 0 33 -12.5t10 -30.5v-88q0 -41 -37 -41h-491q-41 0 -41 39v92q0 41 41 41h111v1073h-119q-41 0 -41 41zM125 1591q-25 25 4 54l204 186q14 12 25.5 17t34.5 5h33 q23 0 34 -5t25 -17l205 -186q29 -29 4 -54l-35 -37q-16 -16 -29.5 -16t-42.5 18l-178 117l-178 -117q-29 -18 -42 -18t-30 16z" />
<glyph unicode="&#xcf;" horiz-adv-x="823" d="M116 1638v136q0 27 7.5 32.5t31.5 5.5h137q25 0 32 -6t7 -32v-136q0 -27 -7 -33t-32 -6h-137q-25 0 -32 6.5t-7 32.5zM119 1286v90q0 16 9 28.5t28 12.5h501q23 0 33 -11t10 -28v-90q0 -25 -10 -34t-33 -9h-116v-1073h112q23 0 33 -12.5t10 -30.5v-88q0 -41 -37 -41h-491 q-41 0 -41 39v92q0 41 41 41h111v1073h-119q-41 0 -41 41zM491 1638v136q0 27 7 32.5t32 5.5h137q25 0 32 -6t7 -32v-136q0 -27 -7 -33t-32 -6h-137q-25 0 -32 6.5t-7 32.5z" />
<glyph unicode="&#xd0;" horiz-adv-x="1449" d="M0 676v82q0 25 8 32t33 7h139v559q0 33 12.5 47t51.5 14h295q178 0 303 -22.5t227 -81.5q139 -80 216 -231t77 -380q0 -186 -59.5 -322t-163.5 -226q-96 -80 -225.5 -117t-282.5 -37h-391q-31 0 -45.5 11.5t-14.5 45.5v580h-137q-27 0 -35 8t-8 31zM446 221h158 q106 0 193.5 21.5t152.5 87.5q61 61 95 153t34 222q0 141 -41 243.5t-118 161.5q-61 47 -143.5 65.5t-180.5 18.5h-150v-397h232q25 0 33 -7.5t8 -31.5v-82q0 -23 -8.5 -31t-34.5 -8h-230v-416z" />
<glyph unicode="&#xd1;" horiz-adv-x="1488" d="M150 51v1311q0 33 13 44t42 11h133q25 0 39 -8t31 -31l673 -925h4v911q0 53 54 53h149q53 0 53 -53v-1309q0 -35 -13 -45t-36 -10h-131q-53 0 -84 43l-667 913h-4v-903q0 -53 -54 -53h-147q-29 0 -42 10t-13 41zM409 1677q-18 35 21 60q41 29 90 48t96 19q37 0 71 -11 t63.5 -24.5t57 -24.5t52.5 -11q29 0 58.5 10t64.5 33q23 14 35 12t22 -21l33 -65q18 -35 -20 -60q-41 -29 -90.5 -48t-96.5 -19q-37 0 -70.5 11t-63.5 24.5t-57.5 25t-52.5 11.5q-53 0 -122 -43q-23 -14 -35.5 -12.5t-22.5 20.5z" />
<glyph unicode="&#xd2;" horiz-adv-x="1423" d="M92 705q0 166 44 302t127 233t198.5 150.5t261.5 53.5q152 0 267.5 -54.5t193 -151.5t116.5 -230t39 -291q0 -174 -47 -311.5t-131 -232.5t-199.5 -146.5t-252.5 -51.5q-147 0 -262 51.5t-194 146.5t-120 230.5t-41 301.5zM375 711q0 -256 89 -384t253 -128 q154 0 247 130t93 382q0 260 -87 385t-253 125q-78 0 -140.5 -35t-107.5 -100.5t-69.5 -161t-24.5 -213.5zM510 1767l62 93q16 23 31.5 24.5t39.5 -16.5l281 -199q23 -16 24.5 -29.5t-14.5 -35.5l-35 -52q-16 -23 -29.5 -24.5t-35.5 10.5l-312 172q-37 20 -12 57z" />
<glyph unicode="&#xd3;" horiz-adv-x="1423" d="M92 705q0 166 44 302t127 233t198.5 150.5t261.5 53.5q152 0 267.5 -54.5t193 -151.5t116.5 -230t39 -291q0 -174 -47 -311.5t-131 -232.5t-199.5 -146.5t-252.5 -51.5q-147 0 -262 51.5t-194 146.5t-120 230.5t-41 301.5zM375 711q0 -256 89 -384t253 -128 q154 0 247 130t93 382q0 260 -87 385t-253 125q-78 0 -140.5 -35t-107.5 -100.5t-69.5 -161t-24.5 -213.5zM498 1640q2 13 24 29l281 199q25 18 40 16t32 -24l61 -93q25 -37 -12 -57l-312 -172q-23 -12 -36 -10t-29 24l-35 52q-16 23 -14 36z" />
<glyph unicode="&#xd4;" horiz-adv-x="1423" d="M92 705q0 166 44 302t127 233t198.5 150.5t261.5 53.5q152 0 267.5 -54.5t193 -151.5t116.5 -230t39 -291q0 -174 -47 -311.5t-131 -232.5t-199.5 -146.5t-252.5 -51.5q-147 0 -262 51.5t-194 146.5t-120 230.5t-41 301.5zM375 711q0 -256 89 -384t253 -128 q154 0 247 130t93 382q0 260 -87 385t-253 125q-78 0 -140.5 -35t-107.5 -100.5t-69.5 -161t-24.5 -213.5zM445 1591q-25 25 4 54l204 186q14 12 25.5 17t34.5 5h33q23 0 34 -5t25 -17l205 -186q29 -29 4 -54l-35 -37q-16 -16 -29.5 -16t-42.5 18l-178 117l-178 -117 q-29 -18 -42 -18t-30 16z" />
<glyph unicode="&#xd5;" horiz-adv-x="1423" d="M92 705q0 166 44 302t127 233t198.5 150.5t261.5 53.5q152 0 267.5 -54.5t193 -151.5t116.5 -230t39 -291q0 -174 -47 -311.5t-131 -232.5t-199.5 -146.5t-252.5 -51.5q-147 0 -262 51.5t-194 146.5t-120 230.5t-41 301.5zM375 711q0 -256 89 -384t253 -128 q154 0 247 130t93 382q0 260 -87 385t-253 125q-78 0 -140.5 -35t-107.5 -100.5t-69.5 -161t-24.5 -213.5zM397 1677q-18 35 21 60q41 29 90 48t96 19q37 0 71 -11t63.5 -24.5t57 -24.5t52.5 -11q29 0 58.5 10t64.5 33q23 14 35 12t22 -21l33 -65q18 -35 -20 -60 q-41 -29 -90.5 -48t-96.5 -19q-37 0 -70.5 11t-63.5 24.5t-57.5 25t-52.5 11.5q-53 0 -122 -43q-23 -14 -35.5 -12.5t-22.5 20.5z" />
<glyph unicode="&#xd6;" horiz-adv-x="1423" d="M92 705q0 166 44 302t127 233t198.5 150.5t261.5 53.5q152 0 267.5 -54.5t193 -151.5t116.5 -230t39 -291q0 -174 -47 -311.5t-131 -232.5t-199.5 -146.5t-252.5 -51.5q-147 0 -262 51.5t-194 146.5t-120 230.5t-41 301.5zM375 711q0 -256 89 -384t253 -128 q154 0 247 130t93 382q0 260 -87 385t-253 125q-78 0 -140.5 -35t-107.5 -100.5t-69.5 -161t-24.5 -213.5zM430 1638v136q0 27 7.5 32.5t31.5 5.5h137q25 0 32 -6t7 -32v-136q0 -27 -7 -33t-32 -6h-137q-25 0 -32 6.5t-7 32.5zM805 1638v136q0 27 7 32.5t32 5.5h137 q25 0 32 -6t7 -32v-136q0 -27 -7 -33t-32 -6h-137q-25 0 -32 6.5t-7 32.5z" />
<glyph unicode="&#xd7;" horiz-adv-x="1071" d="M151 290.5q-1 14.5 19 35.5l213 213l-209 211q-23 23 -22.5 38t20.5 35l76 78q23 20 39 21.5t37 -19.5l211 -211l210 209q23 23 38.5 23t35.5 -21l78 -76q20 -23 21.5 -39t-19.5 -36l-211 -213l213 -211q20 -23 17 -39.5t-19 -32.5l-82 -82q-18 -18 -32.5 -19t-34.5 19 l-215 213l-211 -213q-23 -20 -39.5 -17t-32.5 19l-82 82q-18 18 -19 32.5z" />
<glyph unicode="&#xd8;" horiz-adv-x="1433" d="M102 705q0 166 44 302t127 233t199 150.5t261 53.5q98 0 179 -23.5t147 -66.5l104 145q27 37 54 19l73 -56q25 -18 27 -31.5t-10 -29.5l-115 -162q78 -98 118 -230t40 -292q0 -174 -47.5 -311.5t-131.5 -232.5t-199.5 -146.5t-252.5 -51.5q-104 0 -192.5 27t-159.5 76 l-95 -133q-23 -29 -39 -31t-38 14l-58 41q-23 16 -25.5 30.5t15.5 39.5l117 164q-141 188 -142 502zM385 711q0 -156 43 -256l490 704q-78 66 -193 66q-78 0 -140.5 -36t-106.5 -101.5t-68.5 -162t-24.5 -214.5zM514 279q84 -84 213 -84q154 0 247 132t93 384q0 176 -47 295 z" />
<glyph unicode="&#xd9;" horiz-adv-x="1474" d="M143 633v735q0 49 54 49h161q49 0 50 -49v-713q0 -113 16 -198.5t55 -143t103.5 -86t160.5 -28.5q92 0 155 29.5t100.5 88t54 143.5t16.5 195v713q0 49 51 49h162q49 0 49 -49v-739q0 -317 -148.5 -485.5t-449.5 -168.5q-162 0 -274.5 44t-182 128t-101.5 206t-32 280z M516 1767l62 93q16 23 31.5 24.5t39.5 -16.5l281 -199q23 -16 24.5 -29.5t-14.5 -35.5l-35 -52q-16 -23 -29.5 -24.5t-35.5 10.5l-312 172q-37 20 -12 57z" />
<glyph unicode="&#xda;" horiz-adv-x="1474" d="M143 633v735q0 49 54 49h161q49 0 50 -49v-713q0 -113 16 -198.5t55 -143t103.5 -86t160.5 -28.5q92 0 155 29.5t100.5 88t54 143.5t16.5 195v713q0 49 51 49h162q49 0 49 -49v-739q0 -317 -148.5 -485.5t-449.5 -168.5q-162 0 -274.5 44t-182 128t-101.5 206t-32 280z M525 1640q2 13 24 29l281 199q25 18 40 16t32 -24l61 -93q25 -37 -12 -57l-312 -172q-23 -12 -36 -10t-29 24l-35 52q-16 23 -14 36z" />
<glyph unicode="&#xdb;" horiz-adv-x="1474" d="M143 633v735q0 49 54 49h161q49 0 50 -49v-713q0 -113 16 -198.5t55 -143t103.5 -86t160.5 -28.5q92 0 155 29.5t100.5 88t54 143.5t16.5 195v713q0 49 51 49h162q49 0 49 -49v-739q0 -317 -148.5 -485.5t-449.5 -168.5q-162 0 -274.5 44t-182 128t-101.5 206t-32 280z M463 1591q-25 25 4 54l204 186q14 12 25.5 17t34.5 5h33q23 0 34 -5t25 -17l205 -186q29 -29 4 -54l-35 -37q-16 -16 -29.5 -16t-42.5 18l-178 117l-178 -117q-29 -18 -42 -18t-30 16z" />
<glyph unicode="&#xdc;" horiz-adv-x="1474" d="M143 633v735q0 49 54 49h161q49 0 50 -49v-713q0 -113 16 -198.5t55 -143t103.5 -86t160.5 -28.5q92 0 155 29.5t100.5 88t54 143.5t16.5 195v713q0 49 51 49h162q49 0 49 -49v-739q0 -317 -148.5 -485.5t-449.5 -168.5q-162 0 -274.5 44t-182 128t-101.5 206t-32 280z M442 1638v136q0 27 7.5 32.5t31.5 5.5h137q25 0 32 -6t7 -32v-136q0 -27 -7 -33t-32 -6h-137q-25 0 -32 6.5t-7 32.5zM817 1638v136q0 27 7 32.5t32 5.5h137q25 0 32 -6t7 -32v-136q0 -27 -7 -33t-32 -6h-137q-25 0 -32 6.5t-7 32.5z" />
<glyph unicode="&#xdd;" horiz-adv-x="1212" d="M35 1400.5q6 16.5 35 16.5h190q51 0 72 -39l295 -579h4l291 575q12 25 27.5 34t43.5 9h150q55 0 28 -51l-421 -780v-539q0 -47 -48 -47h-172q-47 0 -47 51v524l-444 793q-10 16 -4 32.5zM398 1640q2 13 24 29l281 199q25 18 40 16t32 -24l61 -93q25 -37 -12 -57 l-312 -172q-23 -12 -36 -10t-29 24l-35 52q-16 23 -14 36z" />
<glyph unicode="&#xde;" horiz-adv-x="1138" d="M150 51v1317q0 49 53 49h162q25 0 37 -10t12 -39v-180h84q164 0 282.5 -35t194.5 -121q49 -57 75.5 -132t26.5 -159q0 -123 -43 -212t-119 -148q-78 -59 -176 -86t-207 -27q-57 0 -118 6v-223q0 -51 -49 -51h-162q-53 0 -53 51zM414 475q14 -2 37.5 -3t54.5 -1 q61 0 128.5 12.5t115.5 63.5q61 67 61 184q0 70 -20.5 118t-58.5 77.5t-92 43t-120 13.5h-106v-508z" />
<glyph unicode="&#xdf;" horiz-adv-x="1218" d="M133 -137v1155q0 231 117 350q55 59 143 91t205 32q98 0 181 -24.5t142.5 -71.5t92.5 -117t33 -158q0 -53 -14.5 -104t-44.5 -95t-72 -77t-97 -47v-2q72 -8 133.5 -38t105.5 -77t69.5 -110.5t25.5 -141.5q0 -121 -43 -206t-113.5 -138t-165 -77.5t-194.5 -24.5 q-53 0 -98 6q-23 4 -29 13t-6 30v110q0 23 8 31t31 8q10 0 32.5 -1t49.5 -1q135 0 206.5 72t71.5 182q0 66 -23.5 113t-64.5 76.5t-95 43t-116 13.5h-57q-29 0 -36 8t-7 25v116q0 20 6 25.5t27 5.5h26q109 0 171.5 59.5t62.5 169.5q0 100 -52.5 154.5t-150.5 54.5 q-104 0 -160 -65q-25 -29 -39 -76t-14 -119v-1171q0 -29 -10.5 -42t-38.5 -13h-150q-49 0 -49 53z" />
<glyph unicode="&#xe0;" horiz-adv-x="1142" d="M66 479q0 133 36.5 234.5t98 169t141.5 102.5t166 35q82 0 152.5 -33t109.5 -86l4 55q4 37 43 37h144q43 0 43 -45v-723q0 -29 7 -42t29 -13h17q37 0 37 -35v-96q0 -39 -41 -39h-99q-80 0 -118.5 34t-49.5 87h-4q-47 -61 -128 -103.5t-169 -42.5q-109 0 -187.5 41 t-130.5 111t-76.5 161t-24.5 191zM322 496q0 -66 12 -123.5t38.5 -100.5t67.5 -68.5t99 -25.5q37 0 71.5 13.5t63 33t49 44t33.5 48.5v396q-31 45 -87.5 74.5t-115.5 29.5q-47 0 -89 -20.5t-74 -60.5t-50 -100.5t-18 -139.5zM350 1358l62 92q16 23 31.5 25t39.5 -17 l281 -198q23 -16 24.5 -29.5t-14.5 -36.5l-35 -51q-16 -23 -29.5 -25t-35.5 10l-312 172q-37 20 -12 58z" />
<glyph unicode="&#xe1;" horiz-adv-x="1142" d="M66 479q0 133 36.5 234.5t98 169t141.5 102.5t166 35q82 0 152.5 -33t109.5 -86l4 55q4 37 43 37h144q43 0 43 -45v-723q0 -29 7 -42t29 -13h17q37 0 37 -35v-96q0 -39 -41 -39h-99q-80 0 -118.5 34t-49.5 87h-4q-47 -61 -128 -103.5t-169 -42.5q-109 0 -187.5 41 t-130.5 111t-76.5 161t-24.5 191zM322 496q0 -66 12 -123.5t38.5 -100.5t67.5 -68.5t99 -25.5q37 0 71.5 13.5t63 33t49 44t33.5 48.5v396q-31 45 -87.5 74.5t-115.5 29.5q-47 0 -89 -20.5t-74 -60.5t-50 -100.5t-18 -139.5zM359 1230q2 13 24 30l281 198q25 18 40 16.5 t32 -24.5l61 -92q25 -37 -12 -58l-312 -172q-23 -12 -36 -10t-29 25l-35 51q-16 23 -14 36z" />
<glyph unicode="&#xe2;" horiz-adv-x="1142" d="M66 479q0 133 36.5 234.5t98 169t141.5 102.5t166 35q82 0 152.5 -33t109.5 -86l4 55q4 37 43 37h144q43 0 43 -45v-723q0 -29 7 -42t29 -13h17q37 0 37 -35v-96q0 -39 -41 -39h-99q-80 0 -118.5 34t-49.5 87h-4q-47 -61 -128 -103.5t-169 -42.5q-109 0 -187.5 41 t-130.5 111t-76.5 161t-24.5 191zM291 1182q-25 25 4 53l204 186q14 12 25.5 17.5t34.5 5.5h33q23 0 34 -5t25 -18l205 -186q29 -29 4 -53l-35 -37q-16 -16 -29.5 -16.5t-42.5 18.5l-178 117l-178 -117q-29 -18 -42 -18.5t-30 16.5zM322 496q0 -66 12 -123.5t38.5 -100.5 t67.5 -68.5t99 -25.5q37 0 71.5 13.5t63 33t49 44t33.5 48.5v396q-31 45 -87.5 74.5t-115.5 29.5q-47 0 -89 -20.5t-74 -60.5t-50 -100.5t-18 -139.5z" />
<glyph unicode="&#xe3;" horiz-adv-x="1142" d="M66 479q0 133 36.5 234.5t98 169t141.5 102.5t166 35q82 0 152.5 -33t109.5 -86l4 55q4 37 43 37h144q43 0 43 -45v-723q0 -29 7 -42t29 -13h17q37 0 37 -35v-96q0 -39 -41 -39h-99q-80 0 -118.5 34t-49.5 87h-4q-47 -61 -128 -103.5t-169 -42.5q-109 0 -187.5 41 t-130.5 111t-76.5 161t-24.5 191zM243 1268q-18 35 21 59q41 29 90 48.5t96 19.5q37 0 71 -11.5t63.5 -24.5t57 -24.5t52.5 -11.5q29 0 58.5 10t64.5 33q23 14 35 12t22 -20l33 -66q18 -35 -20 -59q-41 -29 -90.5 -48.5t-96.5 -19.5q-37 0 -70.5 11.5t-63.5 24.5t-57.5 24.5 t-52.5 11.5q-53 0 -122 -43q-23 -14 -35.5 -12t-22.5 20zM322 496q0 -66 12 -123.5t38.5 -100.5t67.5 -68.5t99 -25.5q37 0 71.5 13.5t63 33t49 44t33.5 48.5v396q-31 45 -87.5 74.5t-115.5 29.5q-47 0 -89 -20.5t-74 -60.5t-50 -100.5t-18 -139.5z" />
<glyph unicode="&#xe4;" horiz-adv-x="1142" d="M66 479q0 133 36.5 234.5t98 169t141.5 102.5t166 35q82 0 152.5 -33t109.5 -86l4 55q4 37 43 37h144q43 0 43 -45v-723q0 -29 7 -42t29 -13h17q37 0 37 -35v-96q0 -39 -41 -39h-99q-80 0 -118.5 34t-49.5 87h-4q-47 -61 -128 -103.5t-169 -42.5q-109 0 -187.5 41 t-130.5 111t-76.5 161t-24.5 191zM293 1229v135q0 27 7.5 33t31.5 6h137q25 0 32 -6t7 -33v-135q0 -27 -7 -33t-32 -6h-137q-25 0 -32 6t-7 33zM322 496q0 -66 12 -123.5t38.5 -100.5t67.5 -68.5t99 -25.5q37 0 71.5 13.5t63 33t49 44t33.5 48.5v396q-31 45 -87.5 74.5 t-115.5 29.5q-47 0 -89 -20.5t-74 -60.5t-50 -100.5t-18 -139.5zM668 1229v135q0 27 7 33t32 6h137q25 0 32 -6t7 -33v-135q0 -27 -7 -33t-32 -6h-137q-25 0 -32 6t-7 33z" />
<glyph unicode="&#xe5;" horiz-adv-x="1142" d="M66 479q0 133 36.5 234.5t98 169t141.5 102.5t166 35q82 0 152.5 -33t109.5 -86l4 55q4 37 43 37h144q43 0 43 -45v-723q0 -29 7 -42t29 -13h17q37 0 37 -35v-96q0 -39 -41 -39h-99q-80 0 -118.5 34t-49.5 87h-4q-47 -61 -128 -103.5t-169 -42.5q-109 0 -187.5 41 t-130.5 111t-76.5 161t-24.5 191zM322 496q0 -66 12 -123.5t38.5 -100.5t67.5 -68.5t99 -25.5q37 0 71.5 13.5t63 33t49 44t33.5 48.5v396q-31 45 -87.5 74.5t-115.5 29.5q-47 0 -89 -20.5t-74 -60.5t-50 -100.5t-18 -139.5zM403 1280q0 72 48.5 118t119.5 46q72 0 120 -46 t48 -118t-48 -118t-120 -46t-120 46t-48 118zM518 1280q0 -23 14 -39t39 -16t39.5 16t14.5 39t-14.5 39t-39.5 16t-39 -16t-14 -39z" />
<glyph unicode="&#xe6;" horiz-adv-x="1599" d="M53 274q0 98 48.5 167t129 111t187 59.5t221.5 15.5v49q0 72 -40 115t-142 43q-117 0 -260 -72q-33 -14 -45 18l-35 94q-12 35 28 58q74 41 165 64.5t182 23.5q96 0 178 -32t123 -103h4q51 61 136 98t189 37q106 0 184 -40t129.5 -108.5t76 -158.5t24.5 -191 q0 -51 -13.5 -65.5t-45.5 -14.5h-603q12 -119 91 -193.5t202 -74.5q66 0 129.5 13.5t122.5 35.5q25 10 36 4t15 -22l29 -105q6 -20 1 -34.5t-30 -24.5q-76 -35 -170 -50.5t-174 -15.5q-236 0 -368 134q-72 -59 -164 -96.5t-203 -37.5q-72 0 -133 19.5t-106.5 58.5t-72 94.5 t-26.5 126.5zM305 293q0 -59 41 -92t107 -33q63 0 124.5 26.5t98.5 61.5q-16 37 -26.5 87t-10.5 95v23q-154 0 -244 -41t-90 -127zM879 602h419q0 45 -10 86t-33.5 73t-59.5 50t-87 18q-49 0 -89 -18t-69.5 -50t-47 -73t-23.5 -86z" />
<glyph unicode="&#xe7;" horiz-adv-x="915" d="M61 487q0 119 35 217.5t100.5 168t160 108.5t212.5 39q70 0 139.5 -14.5t135.5 -42.5q20 -10 22 -21.5t-2 -32.5l-26 -110q-10 -35 -47 -19q-45 20 -94.5 32.5t-102.5 12.5q-133 0 -205 -87t-72 -238q0 -147 67 -239.5t200 -92.5q66 0 113.5 11t101.5 34q37 12 45 -16 l28 -101q6 -23 2 -36t-26 -23q-72 -33 -139.5 -46.5t-145.5 -15.5l-4 -65h16q100 0 155.5 -44t55.5 -130q0 -78 -64.5 -128t-170.5 -50q-80 0 -150 28q-33 12 -26 39l14 66q4 10 11.5 15t31.5 -3q25 -8 54.5 -13t48.5 -5q35 0 59 13t24 40q0 25 -17 39t-83 14h-29 q-53 0 -64 14.5t-7 49.5l14 131q-180 33 -275.5 164t-95.5 337z" />
<glyph unicode="&#xe8;" horiz-adv-x="1054" d="M70 500q0 115 36.5 211t103 164.5t160 106.5t208.5 38q94 0 169.5 -33t129.5 -90q72 -74 96 -168t24 -199v-30q0 -37 -14 -48.5t-53 -11.5h-600q12 -119 91 -192.5t202 -73.5q66 0 129 13.5t122 35.5q25 10 36.5 4t15.5 -22l28 -105q6 -20 1 -34.5t-29 -24.5 q-76 -35 -170 -50.5t-174 -15.5q-121 0 -216.5 37t-161 105.5t-100 165t-34.5 217.5zM326 1358l62 92q16 23 31.5 25t39.5 -17l281 -198q23 -16 24.5 -29.5t-14.5 -36.5l-35 -51q-16 -23 -29.5 -25t-35.5 10l-312 172q-37 20 -12 58zM334 602h420v23q-2 39 -14.5 76.5 t-36 65.5t-58.5 45t-82 17q-49 0 -89 -18t-69.5 -50t-47 -73t-23.5 -86z" />
<glyph unicode="&#xe9;" horiz-adv-x="1054" d="M70 500q0 115 36.5 211t103 164.5t160 106.5t208.5 38q94 0 169.5 -33t129.5 -90q72 -74 96 -168t24 -199v-30q0 -37 -14 -48.5t-53 -11.5h-600q12 -119 91 -192.5t202 -73.5q66 0 129 13.5t122 35.5q25 10 36.5 4t15.5 -22l28 -105q6 -20 1 -34.5t-29 -24.5 q-76 -35 -170 -50.5t-174 -15.5q-121 0 -216.5 37t-161 105.5t-100 165t-34.5 217.5zM334 602h420v23q-2 39 -14.5 76.5t-36 65.5t-58.5 45t-82 17q-49 0 -89 -18t-69.5 -50t-47 -73t-23.5 -86zM355 1230q2 13 24 30l281 198q25 18 40 16.5t32 -24.5l61 -92q25 -37 -12 -58 l-312 -172q-23 -12 -36 -10t-29 25l-35 51q-16 23 -14 36z" />
<glyph unicode="&#xea;" horiz-adv-x="1054" d="M70 500q0 115 36.5 211t103 164.5t160 106.5t208.5 38q94 0 169.5 -33t129.5 -90q72 -74 96 -168t24 -199v-30q0 -37 -14 -48.5t-53 -11.5h-600q12 -119 91 -192.5t202 -73.5q66 0 129 13.5t122 35.5q25 10 36.5 4t15.5 -22l28 -105q6 -20 1 -34.5t-29 -24.5 q-76 -35 -170 -50.5t-174 -15.5q-121 0 -216.5 37t-161 105.5t-100 165t-34.5 217.5zM275 1182q-25 25 4 53l204 186q14 12 25.5 17.5t34.5 5.5h33q23 0 34 -5t25 -18l205 -186q29 -29 4 -53l-35 -37q-16 -16 -29.5 -16.5t-42.5 18.5l-178 117l-178 -117q-29 -18 -42 -18.5 t-30 16.5zM334 602h420v23q-2 39 -14.5 76.5t-36 65.5t-58.5 45t-82 17q-49 0 -89 -18t-69.5 -50t-47 -73t-23.5 -86z" />
<glyph unicode="&#xeb;" horiz-adv-x="1054" d="M70 500q0 115 36.5 211t103 164.5t160 106.5t208.5 38q94 0 169.5 -33t129.5 -90q72 -74 96 -168t24 -199v-30q0 -37 -14 -48.5t-53 -11.5h-600q12 -119 91 -192.5t202 -73.5q66 0 129 13.5t122 35.5q25 10 36.5 4t15.5 -22l28 -105q6 -20 1 -34.5t-29 -24.5 q-76 -35 -170 -50.5t-174 -15.5q-121 0 -216.5 37t-161 105.5t-100 165t-34.5 217.5zM272 1229v135q0 27 7.5 33t31.5 6h137q25 0 32 -6t7 -33v-135q0 -27 -7 -33t-32 -6h-137q-25 0 -32 6t-7 33zM334 602h420v23q-2 39 -14.5 76.5t-36 65.5t-58.5 45t-82 17q-49 0 -89 -18 t-69.5 -50t-47 -73t-23.5 -86zM647 1229v135q0 27 7 33t32 6h137q25 0 32 -6t7 -33v-135q0 -27 -7 -33t-32 -6h-137q-25 0 -32 6t-7 33z" />
<glyph unicode="&#xec;" horiz-adv-x="534" d="M49 1358l62 92q16 23 31.5 25t39.5 -17l281 -198q23 -16 24.5 -29.5t-14.5 -36.5l-35 -51q-16 -23 -29.5 -25t-35.5 10l-312 172q-37 20 -12 58zM145 51v895q0 47 54 47h143q25 0 38 -9t13 -38v-895q0 -51 -51 -51h-143q-53 0 -54 51z" />
<glyph unicode="&#xed;" horiz-adv-x="534" d="M37 1230q2 13 24 30l281 198q25 18 40 16.5t32 -24.5l61 -92q25 -37 -12 -58l-312 -172q-23 -12 -36 -10t-29 25l-35 51q-16 23 -14 36zM145 51v895q0 47 54 47h143q25 0 38 -9t13 -38v-895q0 -51 -51 -51h-143q-53 0 -54 51z" />
<glyph unicode="&#xee;" horiz-adv-x="534" d="M-16 1182q-25 25 4 53l204 186q14 12 25.5 17.5t34.5 5.5h33q23 0 34 -5t25 -18l205 -186q29 -29 4 -53l-35 -37q-16 -16 -29.5 -16.5t-42.5 18.5l-178 117l-178 -117q-29 -18 -42 -18.5t-30 16.5zM145 51v895q0 47 54 47h143q25 0 38 -9t13 -38v-895q0 -51 -51 -51h-143 q-53 0 -54 51z" />
<glyph unicode="&#xef;" horiz-adv-x="534" d="M-25 1229v135q0 27 7.5 33t31.5 6h137q25 0 32 -6t7 -33v-135q0 -27 -7 -33t-32 -6h-137q-25 0 -32 6t-7 33zM145 51v895q0 47 54 47h143q25 0 38 -9t13 -38v-895q0 -51 -51 -51h-143q-53 0 -54 51zM350 1229v135q0 27 7 33t32 6h137q25 0 32 -6t7 -33v-135q0 -27 -7 -33 t-32 -6h-137q-25 0 -32 6t-7 33z" />
<glyph unicode="&#xf0;" horiz-adv-x="1132" d="M70 500q0 111 33.5 206t97 164.5t153.5 109.5t203 40t180 -49q-31 74 -78 149.5t-106 143.5l-147 -107q-23 -16 -35.5 -14t-24.5 20l-39 58q-10 16 -10 27.5t22 27.5l127 92q-20 18 -40.5 33.5t-40.5 30.5q-23 14 -23 24t12 25l56 63q14 16 28.5 16.5t40.5 -14.5 q57 -35 111 -73l100 73q23 16 35 14.5t25 -18.5l38 -51q16 -23 14.5 -34t-26.5 -30l-67 -49q94 -90 159.5 -189t105.5 -204.5t58.5 -212t18.5 -209.5q0 -123 -31 -230.5t-92.5 -186t-153.5 -125t-215 -46.5t-214 40t-152.5 111t-92 166t-30.5 208zM326 504q0 -63 11 -122.5 t37.5 -106t72 -75t112.5 -28.5q68 0 114 27.5t74.5 72.5t41 104t12.5 122t-11.5 122.5t-38 105.5t-71.5 73.5t-113 27.5t-114.5 -27.5t-74.5 -72.5t-40 -103.5t-12 -119.5z" />
<glyph unicode="&#xf1;" d="M129 49v893q0 51 51 51h133q23 0 35 -8t14 -31l3 -53q72 57 156.5 88t174.5 31q172 0 248 -99.5t76 -267.5v-600q0 -27 -10.5 -40t-38.5 -13h-148q-29 0 -39 13.5t-10 39.5v557q0 84 -30.5 138.5t-125.5 54.5q-59 0 -126.5 -29t-114.5 -69v-654q0 -51 -49 -51h-150 q-49 0 -49 49zM260 1268q-18 35 21 59q41 29 90 48.5t96 19.5q37 0 71 -11.5t63.5 -24.5t57 -24.5t52.5 -11.5q29 0 58.5 10t64.5 33q23 14 35 12t22 -20l33 -66q18 -35 -20 -59q-41 -29 -90.5 -48.5t-96.5 -19.5q-37 0 -70.5 11.5t-63.5 24.5t-57.5 24.5t-52.5 11.5 q-53 0 -122 -43q-23 -14 -35.5 -12t-22.5 20z" />
<glyph unicode="&#xf2;" horiz-adv-x="1126" d="M70 500q0 111 32.5 206t97 164.5t157 109.5t212.5 40q125 0 217.5 -39t151.5 -108.5t89 -165.5t30 -209q0 -111 -33 -206t-97.5 -166t-157.5 -111t-212 -40q-125 0 -217 40t-151.5 111t-89 166t-29.5 208zM326 504q0 -63 11 -122.5t37.5 -107t72 -76t112.5 -28.5 q68 0 114 27.5t74.5 73.5t41 105t12.5 122t-11.5 121.5t-38 104.5t-71.5 73.5t-113 27.5t-114.5 -27.5t-74.5 -71.5t-40 -102.5t-12 -119.5zM350 1358l62 92q16 23 31.5 25t39.5 -17l281 -198q23 -16 24.5 -29.5t-14.5 -36.5l-35 -51q-16 -23 -29.5 -25t-35.5 10l-312 172 q-37 20 -12 58z" />
<glyph unicode="&#xf3;" horiz-adv-x="1126" d="M70 500q0 111 32.5 206t97 164.5t157 109.5t212.5 40q125 0 217.5 -39t151.5 -108.5t89 -165.5t30 -209q0 -111 -33 -206t-97.5 -166t-157.5 -111t-212 -40q-125 0 -217 40t-151.5 111t-89 166t-29.5 208zM326 504q0 -63 11 -122.5t37.5 -107t72 -76t112.5 -28.5 q68 0 114 27.5t74.5 73.5t41 105t12.5 122t-11.5 121.5t-38 104.5t-71.5 73.5t-113 27.5t-114.5 -27.5t-74.5 -71.5t-40 -102.5t-12 -119.5zM330 1230q2 13 24 30l281 198q25 18 40 16.5t32 -24.5l61 -92q25 -37 -12 -58l-312 -172q-23 -12 -36 -10t-29 25l-35 51 q-16 23 -14 36z" />
<glyph unicode="&#xf4;" horiz-adv-x="1126" d="M70 500q0 111 32.5 206t97 164.5t157 109.5t212.5 40q125 0 217.5 -39t151.5 -108.5t89 -165.5t30 -209q0 -111 -33 -206t-97.5 -166t-157.5 -111t-212 -40q-125 0 -217 40t-151.5 111t-89 166t-29.5 208zM277 1182q-25 25 4 53l204 186q14 12 25.5 17.5t34.5 5.5h33 q23 0 34 -5t25 -18l205 -186q29 -29 4 -53l-35 -37q-16 -16 -29.5 -16.5t-42.5 18.5l-178 117l-178 -117q-29 -18 -42 -18.5t-30 16.5zM326 504q0 -63 11 -122.5t37.5 -107t72 -76t112.5 -28.5q68 0 114 27.5t74.5 73.5t41 105t12.5 122t-11.5 121.5t-38 104.5t-71.5 73.5 t-113 27.5t-114.5 -27.5t-74.5 -71.5t-40 -102.5t-12 -119.5z" />
<glyph unicode="&#xf5;" horiz-adv-x="1126" d="M70 500q0 111 32.5 206t97 164.5t157 109.5t212.5 40q125 0 217.5 -39t151.5 -108.5t89 -165.5t30 -209q0 -111 -33 -206t-97.5 -166t-157.5 -111t-212 -40q-125 0 -217 40t-151.5 111t-89 166t-29.5 208zM233 1268q-18 35 21 59q41 29 90 48.5t96 19.5q37 0 71 -11.5 t63.5 -24.5t57 -24.5t52.5 -11.5q29 0 58.5 10t64.5 33q23 14 35 12t22 -20l33 -66q18 -35 -20 -59q-41 -29 -90.5 -48.5t-96.5 -19.5q-37 0 -70.5 11.5t-63.5 24.5t-57.5 24.5t-52.5 11.5q-53 0 -122 -43q-23 -14 -35.5 -12t-22.5 20zM326 504q0 -63 11 -122.5t37.5 -107 t72 -76t112.5 -28.5q68 0 114 27.5t74.5 73.5t41 105t12.5 122t-11.5 121.5t-38 104.5t-71.5 73.5t-113 27.5t-114.5 -27.5t-74.5 -71.5t-40 -102.5t-12 -119.5z" />
<glyph unicode="&#xf6;" horiz-adv-x="1126" d="M70 500q0 111 32.5 206t97 164.5t157 109.5t212.5 40q125 0 217.5 -39t151.5 -108.5t89 -165.5t30 -209q0 -111 -33 -206t-97.5 -166t-157.5 -111t-212 -40q-125 0 -217 40t-151.5 111t-89 166t-29.5 208zM268 1229v135q0 27 7.5 33t31.5 6h137q25 0 32 -6t7 -33v-135 q0 -27 -7 -33t-32 -6h-137q-25 0 -32 6t-7 33zM326 504q0 -63 11 -122.5t37.5 -107t72 -76t112.5 -28.5q68 0 114 27.5t74.5 73.5t41 105t12.5 122t-11.5 121.5t-38 104.5t-71.5 73.5t-113 27.5t-114.5 -27.5t-74.5 -71.5t-40 -102.5t-12 -119.5zM643 1229v135q0 27 7 33 t32 6h137q25 0 32 -6t7 -33v-135q0 -27 -7 -33t-32 -6h-137q-25 0 -32 6t-7 33z" />
<glyph unicode="&#xf7;" horiz-adv-x="1071" d="M78 483v115q0 27 9 38t38 11h815q31 0 42 -11t11 -40v-109q0 -29 -11 -42t-40 -13h-815q-29 0 -39 13.5t-10 37.5zM414 121v158q0 29 8 37t37 8h155q29 0 37 -8.5t8 -36.5v-158q0 -29 -8 -37t-37 -8h-155q-29 0 -37 8t-8 37zM414 827v158q0 29 8 37t37 8h155q29 0 37 -8 t8 -37v-158q0 -29 -8 -37t-37 -8h-155q-29 0 -37 8.5t-8 36.5z" />
<glyph unicode="&#xf8;" horiz-adv-x="1126" d="M70 500q0 111 32.5 206t97 164.5t157 109.5t212.5 40q131 0 224 -43l47 76q16 25 29.5 31t33.5 -7l33 -20q16 -10 16 -21.5t-10 -29.5l-53 -86q86 -70 127 -178.5t41 -243.5q0 -111 -33 -206t-97.5 -166t-157.5 -111t-212 -40q-131 0 -223 43l-55 -88 q-12 -23 -24.5 -23.5t-27.5 9.5l-41 27q-16 10 -18 20t6 23l59 94q-84 72 -123.5 179.5t-39.5 240.5zM326 504q0 -57 8 -111.5t31 -101.5l315 506q-47 29 -113 28q-68 0 -114.5 -27.5t-74.5 -71.5t-40 -102.5t-12 -119.5zM444 199q47 -29 115 -29t114 27.5t74.5 73.5t41 105 t12.5 122q0 59 -9.5 113.5t-31.5 99.5z" />
<glyph unicode="&#xf9;" horiz-adv-x="1138" d="M129 342v604q0 47 53 47h144q25 0 38 -9t13 -38v-561q0 -86 29.5 -138t121.5 -52q59 0 125 28.5t113 69.5v653q0 47 51 47h146q25 0 38 -9t13 -38v-889q0 -33 -11.5 -45t-41.5 -12h-132q-45 0 -49 41l-2 51q-145 -117 -325 -117q-172 0 -248 100.5t-76 266.5zM348 1358 l62 92q16 23 31.5 25t39.5 -17l281 -198q23 -16 24.5 -29.5t-14.5 -36.5l-35 -51q-16 -23 -29.5 -25t-35.5 10l-312 172q-37 20 -12 58z" />
<glyph unicode="&#xfa;" horiz-adv-x="1138" d="M129 342v604q0 47 53 47h144q25 0 38 -9t13 -38v-561q0 -86 29.5 -138t121.5 -52q59 0 125 28.5t113 69.5v653q0 47 51 47h146q25 0 38 -9t13 -38v-889q0 -33 -11.5 -45t-41.5 -12h-132q-45 0 -49 41l-2 51q-145 -117 -325 -117q-172 0 -248 100.5t-76 266.5zM377 1230 q2 13 24 30l281 198q25 18 40 16.5t32 -24.5l61 -92q25 -37 -12 -58l-312 -172q-23 -12 -36 -10t-29 25l-35 51q-16 23 -14 36z" />
<glyph unicode="&#xfb;" horiz-adv-x="1138" d="M129 342v604q0 47 53 47h144q25 0 38 -9t13 -38v-561q0 -86 29.5 -138t121.5 -52q59 0 125 28.5t113 69.5v653q0 47 51 47h146q25 0 38 -9t13 -38v-889q0 -33 -11.5 -45t-41.5 -12h-132q-45 0 -49 41l-2 51q-145 -117 -325 -117q-172 0 -248 100.5t-76 266.5zM283 1182 q-25 25 4 53l204 186q14 12 25.5 17.5t34.5 5.5h33q23 0 34 -5t25 -18l205 -186q29 -29 4 -53l-35 -37q-16 -16 -29.5 -16.5t-42.5 18.5l-178 117l-178 -117q-29 -18 -42 -18.5t-30 16.5z" />
<glyph unicode="&#xfc;" horiz-adv-x="1138" d="M129 342v604q0 47 53 47h144q25 0 38 -9t13 -38v-561q0 -86 29.5 -138t121.5 -52q59 0 125 28.5t113 69.5v653q0 47 51 47h146q25 0 38 -9t13 -38v-889q0 -33 -11.5 -45t-41.5 -12h-132q-45 0 -49 41l-2 51q-145 -117 -325 -117q-172 0 -248 100.5t-76 266.5zM278 1229 v135q0 27 7.5 33t31.5 6h137q25 0 32 -6t7 -33v-135q0 -27 -7 -33t-32 -6h-137q-25 0 -32 6t-7 33zM653 1229v135q0 27 7 33t32 6h137q25 0 32 -6t7 -33v-135q0 -27 -7 -33t-32 -6h-137q-25 0 -32 6t-7 33z" />
<glyph unicode="&#xfd;" horiz-adv-x="1052" d="M28.5 -415.5q-3.5 12.5 0.5 32.5l14 107q6 37 37 36q16 0 39.5 -3t42.5 -3q96 0 143 35t78 107l39 92l-373 960q-8 18 -2 31.5t29 13.5h192q27 0 39 -10t19 -31l225 -671l215 665q14 47 61 47h166q49 0 29 -49l-404 -1061q-35 -92 -74.5 -154.5t-93 -101.5t-123 -56 t-161.5 -17q-29 0 -57.5 2t-51.5 8q-25 8 -28.5 20.5zM334 1230q2 13 24 30l281 198q25 18 40 16.5t32 -24.5l61 -92q25 -37 -12 -58l-312 -172q-23 -12 -36 -10t-29 25l-35 51q-16 23 -14 36z" />
<glyph unicode="&#xfe;" horiz-adv-x="1140" d="M129 -389v1773q0 25 8 38.5t33 17.5l166 22q16 2 28.5 -5t12.5 -32v-510q47 47 118.5 76t149.5 29q100 0 173 -35t124 -90q63 -70 96 -169t33 -214q0 -117 -33.5 -220.5t-99.5 -176.5q-57 -66 -135 -103t-178 -37q-72 0 -137.5 25t-110.5 72v-461q0 -31 -14.5 -42 t-40.5 -11h-144q-49 0 -49 53zM377 274q31 -41 86 -70.5t115 -29.5q53 0 94 21.5t67 54.5q74 92 74 250t-57 237q-31 45 -75 64.5t-95 19.5q-57 0 -117.5 -30.5t-91.5 -69.5v-447z" />
<glyph unicode="&#xff;" horiz-adv-x="1052" d="M28.5 -415.5q-3.5 12.5 0.5 32.5l14 107q6 37 37 36q16 0 39.5 -3t42.5 -3q96 0 143 35t78 107l39 92l-373 960q-8 18 -2 31.5t29 13.5h192q27 0 39 -10t19 -31l225 -671l215 665q14 47 61 47h166q49 0 29 -49l-404 -1061q-35 -92 -74.5 -154.5t-93 -101.5t-123 -56 t-161.5 -17q-29 0 -57.5 2t-51.5 8q-25 8 -28.5 20.5zM258 1229v135q0 27 7.5 33t31.5 6h137q25 0 32 -6t7 -33v-135q0 -27 -7 -33t-32 -6h-137q-25 0 -32 6t-7 33zM633 1229v135q0 27 7 33t32 6h137q25 0 32 -6t7 -33v-135q0 -27 -7 -33t-32 -6h-137q-25 0 -32 6t-7 33z " />
<glyph unicode="&#x152;" horiz-adv-x="1984" d="M92 705q0 166 44 302t127 233t199 150.5t261 53.5q96 0 175 -26.5t136 -71.5q0 35 9.5 53t35.5 18h772q20 0 33.5 -10t9.5 -33l-14 -127q-4 -29 -19.5 -36t-48.5 -7h-516v-370h473q53 0 54 -46v-116q0 -49 -51 -49h-476v-328q0 -47 16.5 -64.5t63.5 -17.5h469 q51 0 51 -47v-117q0 -49 -49 -49h-590q-158 0 -202 98q-78 -63 -170 -93t-189 -30q-147 0 -259.5 51.5t-189.5 146.5t-116 230.5t-39 301.5zM375 711q0 -254 89 -384t253 -130q84 0 170 27.5t145 74.5v807q-29 31 -64.5 52.5t-75.5 35.5t-81 21.5t-76 7.5q-150 0 -243 -113 q-55 -66 -86 -166t-31 -233z" />
<glyph unicode="&#x153;" horiz-adv-x="1757" d="M70 500q0 111 32.5 206t97 164.5t157 109.5t212.5 40q129 0 213 -45t138 -119q59 76 149 120t211 44q94 0 171 -33t130 -90q72 -74 95.5 -168t23.5 -199v-30q0 -37 -14.5 -48.5t-53.5 -11.5h-598q12 -119 90 -192.5t201 -73.5q66 0 130.5 13.5t121.5 35.5l12 4t13 2 q23 0 28 -24l29 -113q2 -6 2 -14q0 -16 -9.5 -23.5t-23.5 -13.5q-76 -35 -170 -50.5t-174 -15.5q-129 0 -221 45.5t-152 122.5q-57 -76 -144 -122t-210 -46q-125 0 -217 40t-151.5 111t-89 166t-29.5 208zM326 502q0 -61 11 -122t37.5 -108t72 -75.5t112.5 -28.5 q68 0 114 27.5t74.5 73.5t41 105t12.5 122q0 61 -11.5 121.5t-38 106.5t-71.5 74.5t-113 28.5t-114.5 -27.5t-74.5 -73.5t-40 -104.5t-12 -119.5zM1038 602h418q0 43 -11 84t-33.5 73t-58.5 51t-87 19q-49 0 -89 -18t-69 -50t-46.5 -73t-23.5 -86z" />
<glyph unicode="&#x178;" horiz-adv-x="1212" d="M35 1400.5q6 16.5 35 16.5h190q51 0 72 -39l295 -579h4l291 575q12 25 27.5 34t43.5 9h150q55 0 28 -51l-421 -780v-539q0 -47 -48 -47h-172q-47 0 -47 51v524l-444 793q-10 16 -4 32.5zM329 1638v136q0 27 7.5 32.5t31.5 5.5h137q25 0 32 -6t7 -32v-136q0 -27 -7 -33 t-32 -6h-137q-25 0 -32 6.5t-7 32.5zM704 1638v136q0 27 7 32.5t32 5.5h137q25 0 32 -6t7 -32v-136q0 -27 -7 -33t-32 -6h-137q-25 0 -32 6.5t-7 32.5z" />
<glyph unicode="&#x2c6;" horiz-adv-x="704" d="M68 1182q-25 25 4 53l204 186q14 12 25.5 17.5t34.5 5.5h33q23 0 34 -5t25 -18l205 -186q29 -29 4 -53l-35 -37q-16 -16 -29.5 -16.5t-42.5 18.5l-178 117l-178 -117q-29 -18 -42 -18.5t-30 16.5z" />
<glyph unicode="&#x2dc;" horiz-adv-x="704" d="M20 1268q-18 35 21 59q41 29 90 48.5t96 19.5q37 0 71 -11.5t63.5 -24.5t57 -24.5t52.5 -11.5q29 0 58.5 10t64.5 33q23 14 35 12t22 -20l33 -66q18 -35 -20 -59q-41 -29 -90.5 -48.5t-96.5 -19.5q-37 0 -70.5 11.5t-63.5 24.5t-57.5 24.5t-52.5 11.5q-53 0 -122 -43 q-23 -14 -35.5 -12t-22.5 20z" />
<glyph unicode="&#x2000;" horiz-adv-x="942" />
<glyph unicode="&#x2001;" horiz-adv-x="1884" />
<glyph unicode="&#x2002;" horiz-adv-x="942" />
<glyph unicode="&#x2003;" horiz-adv-x="1884" />
<glyph unicode="&#x2004;" horiz-adv-x="628" />
<glyph unicode="&#x2005;" horiz-adv-x="471" />
<glyph unicode="&#x2006;" horiz-adv-x="314" />
<glyph unicode="&#x2007;" horiz-adv-x="314" />
<glyph unicode="&#x2008;" horiz-adv-x="235" />
<glyph unicode="&#x2009;" horiz-adv-x="376" />
<glyph unicode="&#x200a;" horiz-adv-x="104" />
<glyph unicode="&#x2010;" horiz-adv-x="587" d="M72 475v133q0 27 9 38t38 11h344q31 0 42 -11t11 -40v-129q0 -29 -11 -42t-40 -13h-344q-29 0 -39 14.5t-10 38.5z" />
<glyph unicode="&#x2011;" horiz-adv-x="587" d="M72 475v133q0 27 9 38t38 11h344q31 0 42 -11t11 -40v-129q0 -29 -11 -42t-40 -13h-344q-29 0 -39 14.5t-10 38.5z" />
<glyph unicode="&#x2012;" horiz-adv-x="587" d="M72 475v133q0 27 9 38t38 11h344q31 0 42 -11t11 -40v-129q0 -29 -11 -42t-40 -13h-344q-29 0 -39 14.5t-10 38.5z" />
<glyph unicode="&#x2013;" horiz-adv-x="1024" d="M0 475v133q0 27 9 38t38 11h924q31 0 42 -11t11 -40v-129q0 -29 -11.5 -42t-39.5 -13h-924q-29 0 -39 14.5t-10 38.5z" />
<glyph unicode="&#x2014;" horiz-adv-x="2048" d="M0 475v133q0 27 9 38t38 11h1948q31 0 42 -11t11 -40v-129q0 -29 -11.5 -42t-39.5 -13h-1948q-29 0 -39 14.5t-10 38.5z" />
<glyph unicode="&#x2018;" horiz-adv-x="438" d="M66 958v101q0 113 59 209t147 157q20 14 37 15q14 0 31 -19l20 -24q10 -12 9.5 -21.5t-15.5 -23.5q-31 -31 -57.5 -71t-26.5 -77q0 -10 4.5 -22.5t20.5 -34.5q10 -16 13 -24.5t3 -26.5v-138q0 -29 -8 -37t-37 -8h-155q-29 0 -37 8.5t-8 36.5z" />
<glyph unicode="&#x2019;" horiz-adv-x="438" d="M69 977.5q1 9.5 15 23.5q31 31 57.5 71t26.5 77q0 10 -4 22.5t-21 34.5q-10 16 -13 24.5t-3 26.5v138q0 29 8 37t37 8h156q29 0 37 -8.5t8 -36.5v-101q0 -113 -59.5 -209t-147.5 -157q-20 -14 -37 -15q-16 0 -31 19l-20 24q-10 12 -9 21.5z" />
<glyph unicode="&#x201a;" horiz-adv-x="438" d="M69 -214.5q1 9.5 15 24.5q31 31 57.5 70.5t26.5 76.5q0 10 -4 22.5t-21 34.5q-10 16 -13 24.5t-3 27.5v137q0 29 8 37t37 8h156q29 0 37 -8.5t8 -36.5v-101q0 -113 -59.5 -209t-147.5 -157q-20 -14 -37 -15q-16 0 -31 19l-20 24q-10 12 -9 21.5z" />
<glyph unicode="&#x201c;" horiz-adv-x="831" d="M66 958v101q0 113 59 209t147 157q20 14 37 15q14 0 31 -19l20 -24q10 -12 9.5 -21.5t-15.5 -23.5q-31 -31 -57.5 -71t-26.5 -77q0 -10 4.5 -22.5t20.5 -34.5q10 -16 13 -24.5t3 -26.5v-138q0 -29 -8 -37t-37 -8h-155q-29 0 -37 8.5t-8 36.5zM459 958v101q0 113 59.5 209 t147.5 157q20 14 36 15q14 0 31 -19l21 -24q10 -12 9 -21.5t-15 -23.5q-31 -31 -57.5 -71t-26.5 -77q0 -10 4 -22.5t20 -34.5q10 -16 13.5 -24.5t3.5 -26.5v-138q0 -29 -8.5 -37t-37.5 -8h-155q-29 0 -37 8.5t-8 36.5z" />
<glyph unicode="&#x201d;" horiz-adv-x="831" d="M69 977.5q1 9.5 15 23.5q31 31 57.5 71t26.5 77q0 10 -4 22.5t-21 34.5q-10 16 -13 24.5t-3 26.5v138q0 29 8 37t37 8h156q29 0 37 -8.5t8 -36.5v-101q0 -113 -59.5 -209t-147.5 -157q-20 -14 -37 -15q-16 0 -31 19l-20 24q-10 12 -9 21.5zM462 977.5q1 9.5 15 23.5 q31 31 57.5 71t26.5 77q0 10 -4 22.5t-20 34.5q-10 16 -13.5 24.5t-3.5 26.5v138q0 29 8.5 37t36.5 8h156q29 0 37 -8.5t8 -36.5v-101q0 -113 -59.5 -209t-147.5 -157q-20 -14 -37 -15q-16 0 -30 19l-21 24q-10 12 -9 21.5z" />
<glyph unicode="&#x201e;" horiz-adv-x="831" d="M69 -214.5q1 9.5 15 24.5q31 31 57.5 70.5t26.5 76.5q0 10 -4 22.5t-21 34.5q-10 16 -13 24.5t-3 27.5v137q0 29 8 37t37 8h156q29 0 37 -8.5t8 -36.5v-101q0 -113 -59.5 -209t-147.5 -157q-20 -14 -37 -15q-16 0 -31 19l-20 24q-10 12 -9 21.5zM462 -214.5 q1 9.5 15 24.5q31 31 57.5 70.5t26.5 76.5q0 10 -4 22.5t-20 34.5q-10 16 -13.5 24.5t-3.5 27.5v137q0 29 8.5 37t36.5 8h156q29 0 37 -8.5t8 -36.5v-101q0 -113 -59.5 -209t-147.5 -157q-20 -14 -37 -15q-16 0 -30 19l-21 24q-10 12 -9 21.5z" />
<glyph unicode="&#x2022;" horiz-adv-x="1034" d="M211 365v374q0 66 28.5 92.5t90.5 26.5h375q61 0 89.5 -26.5t28.5 -92.5v-374q0 -66 -28.5 -92.5t-89.5 -26.5h-375q-61 0 -90 26.5t-29 92.5z" />
<glyph unicode="&#x2026;" horiz-adv-x="1345" d="M121 45v158q0 29 8 37t37 8h156q29 0 37 -8.5t8 -36.5v-158q0 -29 -8.5 -37t-36.5 -8h-156q-29 0 -37 8t-8 37zM561 45v158q0 29 8.5 37t36.5 8h156q29 0 37 -8.5t8 -36.5v-158q0 -29 -8 -37t-37 -8h-156q-29 0 -37 8t-8 37zM1001 45v158q0 29 8.5 37t37.5 8h155 q29 0 37 -8.5t8 -36.5v-158q0 -29 -8 -37t-37 -8h-155q-29 0 -37.5 8t-8.5 37z" />
<glyph unicode="&#x202f;" horiz-adv-x="376" />
<glyph unicode="&#x2039;" horiz-adv-x="567" d="M74 471q0 10 4 17.5t10 17.5l227 289q16 20 29.5 22t30.5 -8l74 -43q18 -10 22 -20.5t-6 -26.5l-166 -248l166 -248q10 -16 6 -26.5t-22 -20.5l-74 -43q-16 -10 -29.5 -8t-30.5 22l-227 289q-14 20 -14 35z" />
<glyph unicode="&#x203a;" horiz-adv-x="567" d="M96 745.5q4 10.5 23 20.5l74 43q16 10 29.5 8t29.5 -22l227 -289l10.5 -17.5t4.5 -17.5q0 -14 -15 -35l-227 -289q-16 -20 -29.5 -22t-29.5 8l-74 43q-18 10 -22.5 20.5t5.5 26.5l166 248l-166 248q-10 16 -6 26.5z" />
<glyph unicode="&#x205f;" horiz-adv-x="471" />
<glyph unicode="&#x20ac;" d="M51 539v57q0 20 7.5 26.5t25.5 6.5h102q-2 18 -2 41.5v50.5h-100q-18 0 -25.5 6t-7.5 27v57q0 20 7.5 26.5t25.5 6.5h111q8 133 52 243.5t119.5 189.5t180 123t231.5 44q86 0 171 -22.5t153 -59.5q37 -20 18 -59l-55 -121q-16 -31 -47 -17q-57 29 -109.5 43.5 t-113.5 14.5q-78 0 -134.5 -29t-94.5 -79t-60.5 -119.5t-28.5 -151.5h381q39 0 31 -37l-12 -53q-4 -23 -12.5 -28t-30.5 -5h-361v-51.5t2 -40.5h344q39 0 31 -37l-12 -53q-4 -23 -12.5 -28t-30.5 -5h-312q23 -135 102 -222t214 -87q57 0 109.5 13t109.5 42q31 14 47 -16 l55 -119q18 -39 -18 -60q-68 -37 -151 -59.5t-173 -22.5q-127 0 -228 38t-174 107.5t-117 167t-58 218.5h-117q-18 0 -25.5 6t-7.5 27z" />
<glyph unicode="&#x2122;" horiz-adv-x="1337" d="M57 1333v56q0 29 29 28h426q16 0 22.5 -6t4.5 -25l-7 -55q-2 -10 -7 -18t-21 -8h-137v-453q0 -31 -29 -31h-88q-29 0 -29 31v453h-135q-29 0 -29 28zM567 856l23 528q2 20 9 26.5t24 6.5h57q16 0 23.5 -4t15.5 -20l176 -385l164 385q6 14 12 19t23 5h59q29 0 31 -28 l28 -533q2 -23 -5 -29t-25 -6h-78q-23 0 -28 11.5t-5 27.5l-6 285l-119 -301q-6 -16 -14 -19.5t-19 -3.5h-39q-25 0 -34 25l-135 303l-5 -295q0 -20 -10 -26.5t-24 -6.5h-68q-31 0 -31 35z" />
<glyph unicode="&#x25fc;" horiz-adv-x="993" d="M0 0v993h993v-993h-993z" />
</font>
</defs>
</svg>
